<?xml version="1.0" encoding="utf-8"?>
<svg viewBox="0 -960 960 960" width="24px" height="24px" fill="#5f6368" xmlns="http://www.w3.org/2000/svg">
  <defs/>
  <path d="M 240 -600 L 480 -840 L 720 -600 L 664 -544 L 520 -688 L 520 -200 L 716.868 -200 L 716.868 -120 L 440 -120 L 440 -688 L 296 -544 L 240 -600 Z M 480 119.293 L 720.707 360 L 664 416.707 L 520.5 273.207 L 520.5 759.5 L 717.368 759.5 L 717.368 840.5 L 439.5 840.5 L 439.5 273.207 L 296 416.707 L 239.293 360 L 480 119.293 Z M 296 415.293 L 440.5 270.793 L 440.5 839.5 L 716.368 839.5 L 716.368 760.5 L 519.5 760.5 L 519.5 270.793 L 664 415.293 L 719.293 360 L 480 120.707 L 240.707 360 L 296 415.293 Z M 480 119.293 L 720.707 360 L 664 416.707 L 520.5 273.207 L 520.5 759.5 L 717.368 759.5 L 717.368 840.5 L 439.5 840.5 L 439.5 273.207 L 296 416.707 L 239.293 360 L 480 119.293 Z M 296 415.293 L 440.5 270.793 L 440.5 839.5 L 716.368 839.5 L 716.368 760.5 L 519.5 760.5 L 519.5 270.793 L 664 415.293 L 719.293 360 L 480 120.707 L 240.707 360 L 296 415.293 Z M 480 119.293 L 720.707 360 L 664 416.707 L 520.5 273.207 L 520.5 759.5 L 717.368 759.5 L 717.368 840.5 L 439.5 840.5 L 439.5 273.207 L 296 416.707 L 239.293 360 L 480 119.293 Z M 296 415.293 L 440.5 270.793 L 440.5 839.5 L 716.368 839.5 L 716.368 760.5 L 519.5 760.5 L 519.5 270.793 L 664 415.293 L 719.293 360 L 480 120.707 L 240.707 360 L 296 415.293 Z" style="fill: rgb(0, 0, 0);"/>
  <path d="M 480 -840.707 L 720.707 -600 L 664 -543.293 L 520.5 -686.793 L 520.5 -200.5 L 717.368 -200.5 L 717.368 -119.5 L 439.5 -119.5 L 439.5 -686.793 L 296 -543.293 L 239.293 -600 Z M 296 -544.707 L 440.5 -689.207 L 440.5 -120.5 L 716.368 -120.5 L 716.368 -199.5 L 519.5 -199.5 L 519.5 -689.207 L 664 -544.707 L 719.293 -600 L 480 -839.293 L 240.707 -600 Z M 721.414 360 L 664 417.414 L 521 274.414 L 521 759 L 717.868 759 L 717.868 841 L 439 841 L 439 274.414 L 296 417.414 L 238.586 360 L 480 118.586 Z M 296 414.586 L 441 269.586 L 441 839 L 715.868 839 L 715.868 761 L 519 761 L 519 269.586 L 664 414.586 L 718.586 360 L 480 121.414 L 241.414 360 Z" style="fill: none;"/>
</svg>