<?xml version="1.0" encoding="utf-8"?>
<svg viewBox="0 0 24 24" xmlns="http://www.w3.org/2000/svg">
  <path d="M 4.24 12.777 C 3.47 11.979 3 10.83 3 9.585 C 3 7.085 4.9 5.064 7.25 5.064 C 8.83 5.064 10.21 5.979 10.94 7.34 L 12.06 7.34 C 12.79 5.979 14.17 5.064 15.75 5.064 C 18.1 5.064 20 7.085 20 9.585 C 20 10.83 19.5 11.979 18.76 12.777 L 11.5 20.489 L 4.24 12.777 M 19.46 13.532 C 20.41 12.511 21 11.128 21 9.585 C 21 6.5 18.65 4 15.75 4 C 14 4 12.45 4.904 11.5 6.309 C 10.55 4.904 9 4 7.25 4 C 4.35 4 2 6.5 2 9.585 C 2 11.128 2.59 12.511 3.54 13.532 L 11.5 22 L 19.46 13.532 Z"/>
</svg>