<?xml version="1.0" encoding="utf-8"?>
<svg viewBox="0 0 250 500" width="250" height="500" xmlns="http://www.w3.org/2000/svg">
  <defs>
    <style>.a{fill:none;stroke:#000000;stroke-linecap:round;stroke-linejoin:round;}</style>
  </defs>
  <path d="M 244.792 406.251 L 26.042 406.251 C 23.167 406.251 20.833 403.918 20.833 401.043 C 20.833 398.168 23.167 395.834 26.042 395.834 L 239.583 395.834 L 239.583 119.793 C 239.583 116.918 241.917 114.584 244.792 114.584 C 247.667 114.584 250 116.918 250 119.793 L 250 401.043 C 250 403.918 247.667 406.251 244.792 406.251 Z M 223.958 385.418 L 5.208 385.418 C 2.333 385.418 0 383.084 0 380.209 L 0 161.459 C 0 159.566 1.011 157.908 2.523 156.996 L 64.021 95.282 C 65.51 93.772 67.76 93.345 69.698 94.147 C 71.646 94.949 72.917 96.855 72.917 98.959 L 72.917 161.459 C 72.917 164.334 70.583 166.668 67.708 166.668 L 10.417 166.668 L 10.417 375.001 L 218.75 375.001 L 218.75 104.168 L 88.542 104.168 C 85.667 104.168 83.333 101.834 83.333 98.959 C 83.333 96.084 85.667 93.751 88.542 93.751 L 223.958 93.751 C 226.833 93.751 229.167 96.084 229.167 98.959 L 229.167 380.209 C 229.167 383.084 226.833 385.418 223.958 385.418 Z M 17.979 156.251 L 62.5 156.251 L 62.5 111.563 L 17.979 156.251 Z" style="" transform="matrix(1, 0, 0, 1, -5.684341886080802e-14, 0)"/>
  <path d="M 138.43 244.804 L 93.43 289.804 M 138.43 289.804 L 93.43 244.804 M 183.426 267.312 C 183.426 304.591 153.205 334.812 115.926 334.812 C 78.647 334.812 48.426 304.591 48.426 267.312 C 48.426 230.033 78.647 199.812 115.926 199.812 C 153.205 199.812 183.426 230.033 183.426 267.312 Z" fill="none" id="XMLID_3568_" stroke-linecap="round" stroke-linejoin="round" stroke-miterlimit="10" style="stroke: rgb(0, 0, 0); stroke-width: 10px;"/>
</svg>

