<?xml version="1.0" encoding="utf-8"?>
<svg viewBox="0 0 250 500" xmlns="http://www.w3.org/2000/svg">
  <defs>
    <style>.a{fill:none;stroke:#000000;stroke-linecap:round;stroke-linejoin:round;}</style>
  </defs>
  <path d="M 244.792 406.251 L 26.042 406.251 C 23.167 406.251 20.833 403.918 20.833 401.043 C 20.833 398.168 23.167 395.834 26.042 395.834 L 239.583 395.834 L 239.583 119.793 C 239.583 116.918 241.917 114.584 244.792 114.584 C 247.667 114.584 250 116.918 250 119.793 L 250 401.043 C 250 403.918 247.667 406.251 244.792 406.251 Z M 223.958 385.418 L 5.208 385.418 C 2.333 385.418 0 383.084 0 380.209 L 0 161.459 C 0 159.566 1.011 157.908 2.523 156.996 L 64.021 95.282 C 65.51 93.772 67.76 93.345 69.698 94.147 C 71.646 94.949 72.917 96.855 72.917 98.959 L 72.917 161.459 C 72.917 164.334 70.583 166.668 67.708 166.668 L 10.417 166.668 L 10.417 375.001 L 218.75 375.001 L 218.75 104.168 L 88.542 104.168 C 85.667 104.168 83.333 101.834 83.333 98.959 C 83.333 96.084 85.667 93.751 88.542 93.751 L 223.958 93.751 C 226.833 93.751 229.167 96.084 229.167 98.959 L 229.167 380.209 C 229.167 383.084 226.833 385.418 223.958 385.418 Z M 17.979 156.251 L 62.5 156.251 L 62.5 111.563 Z M 31.25 234.376 C 31.25 231.501 33.583 229.168 36.458 229.168 L 119.792 229.168 C 122.667 229.168 125 231.501 125 234.376 C 125 237.251 122.667 239.584 119.792 239.584 L 36.458 239.584 C 33.583 239.584 31.25 237.251 31.25 234.376 Z M 31.25 255.209 C 31.25 252.334 33.583 250.001 36.458 250.001 L 88.542 250.001 C 91.417 250.001 93.75 252.334 93.75 255.209 C 93.75 258.084 91.417 260.418 88.542 260.418 L 36.458 260.418 C 33.583 260.418 31.25 258.084 31.25 255.209 Z M 104.167 255.209 C 104.167 252.334 106.5 250.001 109.375 250.001 L 192.708 250.001 C 195.583 250.001 197.917 252.334 197.917 255.209 C 197.917 258.084 195.583 260.418 192.708 260.418 L 109.375 260.418 C 106.5 260.418 104.167 258.084 104.167 255.209 Z M 31.25 296.876 C 31.25 294.001 33.583 291.668 36.458 291.668 L 109.375 291.668 C 112.25 291.668 114.583 294.001 114.583 296.876 C 114.583 299.751 112.25 302.084 109.375 302.084 L 36.458 302.084 C 33.583 302.084 31.25 299.751 31.25 296.876 Z M 31.25 276.043 C 31.25 273.168 33.583 270.834 36.458 270.834 L 140.625 270.834 C 143.5 270.834 145.833 273.168 145.833 276.043 C 145.833 278.918 143.5 281.251 140.625 281.251 L 36.458 281.251 C 33.583 281.251 31.25 278.918 31.25 276.043 Z M 156.25 276.043 C 156.25 273.168 158.583 270.834 161.458 270.834 L 192.708 270.834 C 195.583 270.834 197.917 273.168 197.917 276.043 C 197.917 278.918 195.583 281.251 192.708 281.251 L 161.458 281.251 C 158.583 281.251 156.25 278.918 156.25 276.043 Z M 135.417 234.376 C 135.417 231.501 137.75 229.168 140.625 229.168 L 192.708 229.168 C 195.583 229.168 197.917 231.501 197.917 234.376 C 197.917 237.251 195.583 239.584 192.708 239.584 L 140.625 239.584 C 137.75 239.584 135.417 237.251 135.417 234.376 Z M 52.083 192.709 C 52.083 189.834 54.417 187.501 57.292 187.501 L 192.708 187.501 C 195.583 187.501 197.917 189.834 197.917 192.709 C 197.917 195.584 195.583 197.918 192.708 197.918 L 57.292 197.918 C 54.417 197.918 52.083 195.584 52.083 192.709 Z M 31.25 213.543 C 31.25 210.668 33.583 208.334 36.458 208.334 L 192.708 208.334 C 195.583 208.334 197.917 210.668 197.917 213.543 C 197.917 216.418 195.583 218.751 192.708 218.751 L 36.458 218.751 C 33.583 218.751 31.25 216.418 31.25 213.543 Z" style="" transform="matrix(1, 0, 0, 1, -5.684341886080802e-14, 0)"/>
</svg>