<?xml version="1.0" encoding="utf-8"?>
<svg viewBox="0 0 250 500" width="400px" height="800px" fill="#000000" stroke="#000000" stroke-width="0.0049" xmlns="http://www.w3.org/2000/svg">
  <g id="SVGRepo_bgCarrier" stroke-width="0" transform="matrix(1, 0, 0, 1, 1.1368683772161603e-13, 0)"/>
  <g id="SVGRepo_tracerCarrier" stroke-linecap="round" stroke-linejoin="round" stroke="#CCCCCC" stroke-width="3.9200000000000004" transform="matrix(1, 0, 0, 1, 1.1368683772161603e-13, 0)"/>
  <g id="SVGRepo_iconCarrier" transform="matrix(0.5165290236473083, 0, 0, 0.5165290236473083, -1.5495860576629639, 123.45039367675781)">
    <g>
      <g>
        <g>
          <path d="M 487 385 L 487 425 C 487 430.523 485.522 432 480 432 L 457 432 L 457 480 C 457 485.523 455.522 487 450 487 L 415 487 C 409.478 487 408 485.523 408 480 L 408 432 L 82 432 L 82 480 C 82 485.523 80.144 487 74.622 487 L 40 487 C 34.478 487 33 485.523 33 480 L 33 432 L 10 432 C 4.478 432 3 430.523 3 425 L 3 385 C 3 379.477 4.478 378 10 378 L 85 378 L 85 260 C 85 254.477 89.478 250 95 250 L 200 250 C 205.522 250 210 254.477 210 260 L 209 378 L 268 378 L 268 357 L 255 357 C 249.478 357 248 355.523 248 350 L 248 315 C 248 309.477 249.478 308 255 308 L 278 308 L 278 280 C 278 274.477 279.478 273 285 273 L 415 273 C 420.522 273 422 274.477 422 280 L 422 315 C 422 320.523 420.522 322 415 322 L 392 322 L 392 343 L 405 343 C 410.522 343 412 344.477 412 350 L 412 378 L 480 378 C 485.522 378 487 379.477 487 385 Z M 332 308 L 408 308 L 408 287 L 332 287 Z M 292 308 L 318 308 L 318 287 L 292 287 Z M 262 343 L 378 343 L 378 322 L 262 322 Z M 322 357 L 322 378 L 398 378 L 398 357 Z M 282 357 L 282 378 L 308 378 L 308 357 Z M 172 288 L 196 288 L 196 264 L 172 264 Z M 172 378 L 196 378 L 196 302 L 172 302 Z M 137 378 L 158 378 L 158 264 L 137 264 Z M 99 343 L 123 343 L 123 264 L 99 264 Z M 99 378 C 98.063 378 122.993 378 123 378 L 123 357 L 99 357 Z M 68 432 L 47 432 L 47 476 L 68 476 Z M 443 432 L 422 432 L 422 476 L 443 476 Z M 473 392 L 17 392 L 17 418 L 473 418 Z M 10 131 L 78 131 L 78 103 C 78 97.477 79.478 96 85 96 L 98 96 L 98 75 L 75 75 C 69.478 75 68 73.523 68 68 L 68 33 C 68 27.477 69.478 26 75 26 L 205 26 C 210.522 26 212 27.477 212 33 L 212 61 L 235 61 C 240.522 61 242 62.477 242 68 L 242 103 C 242 108.523 240.522 110 235 110 L 222 110 L 222 131 L 281 131 L 280 13 C 280 7.477 284.478 3 290 3 L 395 3 C 400.522 3 405 7.477 405 13 L 405 131 L 480 131 C 485.522 131 487 132.477 487 138 L 487 178 C 487 183.523 485.522 185 480 185 L 457 185 L 457 233 C 457 238.523 455.522 240 450 240 L 415.378 240 C 409.856 240 408 238.523 408 233 L 408 185 L 82 185 L 82 233 C 82 238.523 80.522 240 75 240 L 40 240 C 34.478 240 33 238.523 33 233 L 33 185 L 10 185 C 4.478 185 3 183.523 3 178 L 3 138 C 3 132.477 4.478 131 10 131 Z M 158 40 L 82 40 L 82 61 L 158 61 Z M 198 40 L 172 40 L 172 61 L 198 61 Z M 228 75 L 112 75 L 112 96 L 228 96 Z M 92 110 L 92 131 L 168 131 L 168 110 Z M 182 110 L 182 131 L 208 131 L 208 110 Z M 318 17 L 294 17 L 294 41 L 318 41 Z M 318 55 L 294 55 L 294 131 L 318 131 Z M 353 17 L 332 17 L 332 131 L 353 131 Z M 391 17 L 367 17 L 367 96 L 391 96 Z M 391 110 L 367 110 L 367 131 C 367.007 131 391.937 131 391 131 Z M 422 229 L 443 229 L 443 185 L 422 185 Z M 47 229 L 68 229 L 68 185 L 47 185 Z M 17 171 L 473 171 L 473 145 L 17 145 Z" style="stroke-width: 0px;"/>
        </g>
      </g>
    </g>
  </g>
</svg>