<?xml version="1.0" encoding="utf-8"?>
<svg viewBox="0 0 250 500" width="400px" height="800px" fill="#000000" stroke="#000000" stroke-width="0.0049" xmlns="http://www.w3.org/2000/svg">
  <g id="SVGRepo_iconCarrier" transform="matrix(0.5165290236473083, 0, 0, 0.5274260640144348, -1.5495860576629639, 148.1434783935547)">
    <g>
      <g>
        <g>
          <path d="M 487 385 L 487 425 C 487 430.523 485.522 432 480 432 L 457 432 L 457 480 C 457 485.523 455.522 487 450 487 L 415 487 C 409.478 487 408 485.523 408 480 L 408 432 L 82 432 L 82 480 C 82 485.523 80.144 487 74.622 487 L 40 487 C 34.478 487 33 485.523 33 480 L 33 432 L 10 432 C 4.478 432 3 430.523 3 425 L 3 385 C 3 379.477 4.478 378 10 378 L 85 378 L 85 260 C 85 254.477 89.478 250 95 250 L 200 250 C 205.522 250 210 254.477 210 260 L 209 378 L 268 378 L 268 357 L 255 357 C 249.478 357 248 355.523 248 350 L 248 315 C 248 309.477 249.478 308 255 308 L 278 308 L 278 280 C 278 274.477 279.478 273 285 273 L 415 273 C 420.522 273 422 274.477 422 280 L 422 315 C 422 320.523 420.522 322 415 322 L 392 322 L 392 343 L 405 343 C 410.522 343 412 344.477 412 350 L 412 378 L 480 378 C 485.522 378 487 379.477 487 385 Z M 332 308 L 408 308 L 408 287 L 332 287 L 332 308 Z M 292 308 L 318 308 L 318 287 L 292 287 L 292 308 Z M 262 343 L 378 343 L 378 322 L 262 322 L 262 343 Z M 322 357 L 322 378 L 398 378 L 398 357 L 322 357 Z M 282 357 L 282 378 L 308 378 L 308 357 L 282 357 Z M 172 288 L 196 288 L 196 264 L 172 264 L 172 288 Z M 172 378 L 196 378 L 196 302 L 172 302 L 172 378 Z M 137 378 L 158 378 L 158 264 L 137 264 L 137 378 Z M 99 343 L 123 343 L 123 264 L 99 264 L 99 343 Z M 99 378 C 98.063 378 122.993 378 123 378 L 123 357 L 99 357 L 99 378 Z M 68 432 L 47 432 L 47 476 L 68 476 L 68 432 Z M 443 432 L 422 432 L 422 476 L 443 476 L 443 432 Z M 473 392 L 17 392 L 17 418 L 473 418 L 473 392 Z" style="stroke-width: 0px;"/>
        </g>
      </g>
    </g>
  </g>
  <g id="g-1" transform="matrix(-0.5165290236473083, 0, 0, 0.5274260640144348, 251.54960632324216, -36.85651397705078)" style="">
    <g>
      <g>
        <g>
          <path d="M 487 385 L 487 425 C 487 430.523 485.522 432 480 432 L 457 432 L 457 480 C 457 485.523 455.522 487 450 487 L 415 487 C 409.478 487 408 485.523 408 480 L 408 432 L 82 432 L 82 480 C 82 485.523 80.144 487 74.622 487 L 40 487 C 34.478 487 33 485.523 33 480 L 33 432 L 10 432 C 4.478 432 3 430.523 3 425 L 3 385 C 3 379.477 4.478 378 10 378 L 85 378 L 85 260 C 85 254.477 89.478 250 95 250 L 200 250 C 205.522 250 210 254.477 210 260 L 209 378 L 268 378 L 268 357 L 255 357 C 249.478 357 248 355.523 248 350 L 248 315 C 248 309.477 249.478 308 255 308 L 278 308 L 278 280 C 278 274.477 279.478 273 285 273 L 415 273 C 420.522 273 422 274.477 422 280 L 422 315 C 422 320.523 420.522 322 415 322 L 392 322 L 392 343 L 405 343 C 410.522 343 412 344.477 412 350 L 412 378 L 480 378 C 485.522 378 487 379.477 487 385 Z M 332 308 L 408 308 L 408 287 L 332 287 L 332 308 Z M 292 308 L 318 308 L 318 287 L 292 287 L 292 308 Z M 262 343 L 378 343 L 378 322 L 262 322 L 262 343 Z M 322 357 L 322 378 L 398 378 L 398 357 L 322 357 Z M 282 357 L 282 378 L 308 378 L 308 357 L 282 357 Z M 172 288 L 196 288 L 196 264 L 172 264 L 172 288 Z M 172 378 L 196 378 L 196 302 L 172 302 L 172 378 Z M 137 378 L 158 378 L 158 264 L 137 264 L 137 378 Z M 99 343 L 123 343 L 123 264 L 99 264 L 99 343 Z M 99 378 C 98.063 378 122.993 378 123 378 L 123 357 L 99 357 L 99 378 Z M 68 432 L 47 432 L 47 476 L 68 476 L 68 432 Z M 443 432 L 422 432 L 422 476 L 443 476 L 443 432 Z M 473 392 L 17 392 L 17 418 L 473 418 L 473 392 Z" style="stroke-width: 0px;"/>
        </g>
      </g>
    </g>
  </g>
</svg>

