<?xml version="1.0" encoding="utf-8"?>
<svg viewBox="0 0 24 24" xmlns="http://www.w3.org/2000/svg">
  <path d="M7,3H16C17.66,3 19,4.34 19,6V19C19,20.66 17.66,22 16,22H7C5.34,22 4,20.66 4,19V6C4,4.34 5.34,3 7,3M7,4C5.9,4 5,4.9 5,6V19C5,20.1 5.9,21 7,21H16C17.1,21 18,20.1 18,19V6C18,4.9 17.1,4 16,4H13V10.7L10,8.6L7,10.7V4M12,4H8V8.78L10,7.38L12,8.78V4Z"/>
  <path d="M 17.091 17.043 L 13.528 17.032 L 14.995 15.574 L 14.363 14.936 L 11.81 17.473 L 14.347 20.026 L 14.985 19.39 L 13.527 17.923 L 17.089 17.933 L 17.091 17.043 Z M 17.543 14.311 C 18.422 15.193 18.858 16.255 18.855 17.493 C 18.853 18.733 18.407 19.794 17.525 20.669 C 16.642 21.548 15.581 21.983 14.34 21.981 C 13.102 21.979 12.043 21.533 11.167 20.651 C 10.288 19.768 9.853 18.707 9.855 17.466 C 9.861 16.228 10.303 15.169 11.185 14.293 C 12.067 13.414 13.129 12.979 14.367 12.981 C 15.607 12.987 16.668 13.429 17.543 14.311 Z" style="fill: rgb(0, 0, 0);"/>
</svg>