<?xml version="1.0" encoding="utf-8"?>
<svg viewBox="0 -960 960 960" width="24px" height="24px" fill="#000000" xmlns="http://www.w3.org/2000/svg">
  <path d="M 452 -160 C 456 -146.667 461.5 -132.833 468.5 -118.5 C 475.5 -104.167 482.667 -91.333 490 -80 L 200 -80 C 178 -80 159.167 -87.833 143.5 -103.5 C 127.833 -119.167 120 -138 120 -160 L 120 -800 C 120 -822 127.833 -840.833 143.5 -856.5 C 159.167 -872.167 178 -880 200 -880 L 680 -880 C 702 -880 720.833 -872.167 736.5 -856.5 C 752.167 -840.833 760 -822 760 -800 L 760 -516 C 748 -517.333 734.667 -518 720 -518 C 705.333 -518 692 -517.333 680 -516 L 680 -800 L 480 -800 L 480 -520 L 380 -580 L 280 -520 L 280 -800 L 200 -800 L 200 -160 L 452 -160 Z M 772.089 -302.282 L 613.697 -302.75 L 678.942 -367.612 L 650.742 -395.979 L 537.271 -283.177 L 650.074 -169.705 L 678.442 -197.906 L 613.58 -263.152 L 771.972 -262.684 L 772.089 -302.282 Z M 792.247 -423.846 C 831.258 -384.604 850.682 -337.406 850.519 -282.251 C 850.356 -227.097 830.653 -180.014 791.411 -141.003 C 752.169 -101.993 704.971 -82.569 649.817 -82.732 C 594.663 -82.894 547.58 -102.597 508.57 -141.839 C 469.558 -181.081 450.134 -228.28 450.297 -283.434 C 450.459 -338.589 470.162 -385.671 509.404 -424.682 C 548.646 -463.693 595.844 -483.117 650.999 -482.953 C 706.153 -482.791 753.236 -463.088 792.247 -423.846 Z" style=""/>
  <path d="M 452.479 -160.144 C 456.472 -146.831 461.958 -133.035 468.949 -118.719 C 475.943 -104.399 483.095 -91.591 490.42 -80.272 L 490.919 -79.5 L 200 -79.5 C 177.904 -79.519 158.881 -87.412 143.146 -103.146 C 127.412 -118.881 119.519 -137.904 119.5 -160 L 119.5 -800 C 119.519 -822.096 127.412 -841.119 143.146 -856.854 C 158.881 -872.588 177.904 -880.481 200 -880.5 L 680 -880.5 C 702.096 -880.481 721.119 -872.588 736.854 -856.854 C 752.588 -841.119 760.481 -822.096 760.5 -800 L 760.5 -515.441 L 759.945 -515.503 C 747.96 -516.835 734.655 -517.5 720 -517.5 C 705.345 -517.5 692.04 -516.835 680.055 -515.503 L 679.5 -515.441 L 679.5 -799.5 L 480.5 -799.5 L 480.5 -519.117 L 380 -579.417 L 279.5 -519.117 L 279.5 -799.5 L 200.5 -799.5 L 200.5 -160.5 L 452.372 -160.5 Z M 199.5 -159.5 L 199.5 -800.5 L 280.5 -800.5 L 280.5 -520.883 L 380 -580.583 L 479.5 -520.883 L 479.5 -800.5 L 680.5 -800.5 L 680.5 -516.558 C 692.371 -517.852 705.321 -518.5 720 -518.5 C 734.679 -518.5 747.629 -517.852 759.5 -516.558 L 759.5 -800 C 759.519 -821.904 751.746 -840.547 736.146 -856.146 C 720.547 -871.746 701.904 -879.519 680 -879.5 L 200 -879.5 C 178.096 -879.519 159.453 -871.746 143.854 -856.146 C 128.254 -840.547 120.481 -821.904 120.5 -800 L 120.5 -160 C 120.481 -138.096 128.254 -119.453 143.854 -103.854 C 159.453 -88.254 178.096 -80.481 200 -80.5 L 489.083 -80.5 C 481.914 -91.657 475.057 -103.935 468.051 -118.281 C 461.042 -132.631 455.626 -146.256 451.628 -159.5 Z M 614.786 -262.648 L 679.149 -197.904 L 650.072 -168.998 L 536.564 -283.179 L 650.744 -396.686 L 679.649 -367.61 L 614.906 -303.246 L 772.59 -302.781 L 772.471 -262.183 Z M 771.588 -301.783 L 612.488 -302.254 L 678.235 -367.614 L 650.74 -395.272 L 537.978 -283.175 L 650.076 -170.412 L 677.735 -197.908 L 612.374 -263.656 L 771.473 -263.185 Z M 792.602 -424.199 C 831.68 -384.889 851.163 -337.5 851.019 -282.25 C 850.837 -227 831.06 -179.74 791.764 -140.648 C 752.44 -101.585 705.065 -82.088 649.816 -82.232 C 594.566 -82.413 547.306 -102.19 508.215 -141.486 C 469.15 -180.81 449.653 -228.186 449.797 -283.435 C 449.978 -338.686 469.742 -385.958 509.052 -425.037 C 548.361 -464.115 595.75 -483.598 651 -483.453 C 706.25 -483.272 753.523 -463.508 792.602 -424.199 Z M 650.998 -482.453 C 595.938 -482.636 548.931 -463.271 509.757 -424.327 C 470.582 -385.384 450.94 -338.492 450.797 -283.433 C 450.615 -228.374 469.966 -181.352 508.925 -142.192 C 547.854 -103.004 594.76 -83.375 649.818 -83.232 C 704.877 -83.05 751.898 -102.401 791.058 -141.358 C 830.246 -180.288 849.875 -227.194 850.019 -282.252 C 850.201 -337.312 830.836 -384.319 791.892 -423.493 C 752.949 -462.668 706.056 -482.31 650.998 -482.453 Z" style="fill: none;"/>
</svg>