<?xml version="1.0" encoding="utf-8"?>
<svg viewBox="0 0 24 24" xmlns="http://www.w3.org/2000/svg">
  <path d="M 4.486 3.956 L 4.487 7.244 C 6.046 4.555 8.95 2.755 12.286 2.755 C 17.254 2.755 21.287 6.786 21.287 11.754 C 21.287 16.722 17.244 20.755 12.288 20.755 C 7.92 20.755 4.295 17.66 3.455 13.556 L 4.691 13.556 C 5.495 16.987 8.592 19.555 12.288 19.555 C 16.596 19.555 20.087 16.062 20.087 11.754 C 20.087 7.446 16.582 3.955 12.286 3.955 C 9.034 3.955 6.251 5.935 5.087 8.756 L 9.287 8.755 L 9.287 9.955 L 3.287 9.956 L 3.286 3.956 L 4.486 3.956 Z M 11.713 6.121 L 12.713 6.121 L 12.713 11.541 L 17.413 14.251 L 16.913 15.121 L 11.713 12.121 L 11.713 6.121 Z" style=""/>
</svg>