<?xml version="1.0" encoding="utf-8"?>
<svg viewBox="0 0 24 24" xmlns="http://www.w3.org/2000/svg">
  <path d="M 7 3 L 16 3 C 17.66 3 19 4.34 19 6 L 19 13.177 C 18.691 12.93 18.358 12.731 18 12.579 L 18 6 C 18 4.9 17.1 4 16 4 L 13 4 L 13 10.7 L 10 8.6 L 7 10.7 L 7 4 C 5.9 4 5 4.9 5 6 L 5 19 C 5 20.1 5.9 21 7 21 L 12.569 21 C 12.752 21.297 12.972 21.575 13.231 21.834 C 13.288 21.891 13.346 21.947 13.406 22 L 7 22 C 5.34 22 4 20.66 4 19 L 4 6 C 4 4.34 5.34 3 7 3 Z M 12 4 L 8 4 L 8 8.78 L 10 7.38 L 12 8.78 Z M 18.966 18.106 L 15.417 18.107 L 16.306 18.995 L 15.776 19.524 L 13.978 17.727 L 15.776 15.93 L 16.306 16.46 L 15.41 17.356 L 18.974 17.356 Z M 19.706 14.545 C 20.142 14.981 20.471 15.477 20.691 16.032 C 20.911 16.586 21.021 17.151 21.02 17.728 C 21.021 18.303 20.911 18.868 20.691 19.422 C 20.47 19.978 20.142 20.473 19.706 20.909 C 19.265 21.35 18.768 21.68 18.214 21.899 C 17.66 22.119 17.095 22.228 16.521 22.227 C 15.947 22.226 15.382 22.115 14.828 21.895 C 14.274 21.674 13.778 21.345 13.342 20.909 C 12.901 20.468 12.571 19.971 12.351 19.418 C 12.131 18.864 12.021 18.3 12.021 17.727 C 12.021 17.154 12.131 16.59 12.351 16.036 C 12.571 15.483 12.901 14.986 13.342 14.545 C 13.778 14.109 14.273 13.781 14.828 13.559 C 15.382 13.339 15.947 13.228 16.52 13.228 C 17.095 13.226 17.66 13.335 18.214 13.555 C 18.768 13.774 19.265 14.104 19.706 14.545 Z M 19.176 15.075 C 18.437 14.336 17.551 13.967 16.521 13.969 C 15.491 13.972 14.608 14.34 13.872 15.075 C 13.133 15.814 12.764 16.699 12.764 17.727 C 12.764 18.755 13.133 19.64 13.872 20.379 C 14.607 21.115 15.491 21.482 16.521 21.485 C 17.551 21.487 18.437 21.118 19.176 20.379 C 19.911 19.643 20.279 18.759 20.279 17.727 C 20.279 16.695 19.911 15.811 19.176 15.075 Z"/>
</svg>

