<?xml version="1.0" encoding="utf-8"?>
<svg viewBox="0 0 24 24" xmlns="http://www.w3.org/2000/svg">
  <path d="M 17.087 9.237 L 12.1 4.094 L 4.245 12.197 L 6.006 12.197 L 6.006 13.339 L 6.006 21.339 L 9.331 21.339 L 9.331 14.482 L 14.87 14.482 L 14.87 21.339 L 18.195 21.339 L 18.195 12.197 L 19.956 12.197 L 18.195 10.379 L 18.195 6.482 L 17.087 6.482 L 17.087 9.237 M 1.574 13.339 L 12.1 2.482 L 15.978 6.482 L 15.978 5.339 L 19.301 5.339 L 19.301 9.91 L 22.627 13.339 L 19.301 13.339 L 19.301 22.482 L 13.762 22.482 L 13.762 15.625 L 10.438 15.625 L 10.438 22.482 L 4.898 22.482 L 4.898 13.339 L 1.574 13.339 Z"/>
</svg>