<?xml version="1.0" encoding="utf-8"?>

<!DOCTYPE svg PUBLIC "-//W3C//DTD SVG 1.1//EN" "http://www.w3.org/Graphics/SVG/1.1/DTD/svg11.dtd">
<!-- Uploaded to: SVG Repo, www.svgrepo.com, Generator: SVG Repo Mixer Tools -->
<svg version="1.1" id="USB" xmlns="http://www.w3.org/2000/svg" xmlns:xlink="http://www.w3.org/1999/xlink" 
	 width="800px" height="800px" viewBox="0 0 1800 1800" enable-background="new 0 0 1800 1800" xml:space="preserve">
<path fill="#333333" d="M1389.648,533.77h-210.622c-17.325,0-31.369,14.044-31.369,31.37v210.622
	c0,17.325,14.044,31.37,31.369,31.37h73.015v150.124c0,1.183,0.078,2.459,0.209,3.638c0.084,0.703,7.558,70.689-28.16,110.688
	c-17.31,19.387-42.328,28.806-76.489,28.806c-11.198,0-22.188-0.105-32.945-0.211c-80.702-0.787-156.951-1.514-209.037,48.604
	V323.104l158.333,86.537c0.021,0.01,0.045,0.022,0.067,0.035l0.231,0.127c0.516,0.279,1.049,0.481,1.574,0.735
	c0.635,0.302,1.257,0.63,1.904,0.889c0.941,0.372,1.891,0.661,2.845,0.936c0.297,0.083,0.581,0.206,0.88,0.28
	c2.587,0.669,5.208,1.006,7.816,1.006c0.014,0,0.03,0,0.044,0c0.004,0,0.009,0,0.013,0c3.681,0,7.387-0.709,10.958-2.048
	c0.358-0.136,0.735-0.228,1.093-0.376c0.277-0.114,0.534-0.281,0.812-0.402c1.023-0.46,2.043-0.946,3.015-1.519
	c0.018-0.009,0.034-0.018,0.053-0.027c1.042-0.613,2.017-1.291,2.958-2c0.323-0.241,0.625-0.508,0.937-0.766
	c0.7-0.573,1.375-1.168,2.017-1.79c0.284-0.28,0.565-0.551,0.837-0.84c0.857-0.901,1.673-1.829,2.407-2.814
	c0.017-0.022,0.034-0.044,0.052-0.065c0.797-1.068,1.492-2.188,2.135-3.34c0.07-0.118,0.16-0.223,0.225-0.346
	c0.126-0.228,0.219-0.463,0.337-0.696c0.267-0.521,0.525-1.042,0.762-1.576c0.2-0.459,0.394-0.918,0.573-1.382
	c0.18-0.46,0.35-0.924,0.507-1.392c0.181-0.534,0.346-1.072,0.494-1.61c0.118-0.416,0.224-0.836,0.32-1.26
	c0.136-0.574,0.259-1.152,0.359-1.729c0.074-0.42,0.136-0.84,0.192-1.265c0.074-0.564,0.139-1.134,0.184-1.698
	c0.035-0.473,0.057-0.941,0.069-1.414c0.018-0.513,0.03-1.02,0.021-1.527c-0.008-0.542-0.039-1.084-0.073-1.627
	c-0.031-0.438-0.066-0.875-0.114-1.309c-0.065-0.6-0.153-1.195-0.254-1.794c-0.065-0.386-0.135-0.771-0.214-1.156
	c-0.126-0.604-0.277-1.204-0.438-1.803c-0.104-0.394-0.219-0.783-0.337-1.168c-0.175-0.556-0.367-1.107-0.573-1.654
	c-0.165-0.446-0.345-0.888-0.534-1.326c-0.2-0.468-0.411-0.936-0.638-1.4c-0.25-0.512-0.518-1.016-0.798-1.514
	c-0.127-0.232-0.231-0.473-0.366-0.705L901.254,19.416c-0.013-0.018-0.025-0.035-0.034-0.057c-1.059-1.78-2.293-3.475-3.711-5.037
	c-2.144-2.372-4.608-4.354-7.278-5.929c-0.009-0.004-0.014-0.015-0.022-0.019c-0.1-0.057-0.206-0.1-0.306-0.161
	c-0.774-0.442-1.562-0.867-2.368-1.243c-0.481-0.228-0.971-0.408-1.457-0.608c-0.438-0.175-0.872-0.373-1.317-0.53
	c-0.644-0.228-1.295-0.411-1.948-0.6c-0.306-0.087-0.613-0.188-0.924-0.267c-0.687-0.176-1.377-0.302-2.069-0.43
	c-0.306-0.057-0.608-0.122-0.91-0.17c-0.652-0.096-1.304-0.153-1.961-0.21c-0.367-0.035-0.735-0.075-1.111-0.097
	c-0.569-0.026-1.138-0.021-1.708-0.018c-0.462,0-0.927-0.009-1.391,0.013c-0.477,0.026-0.954,0.08-1.427,0.123
	c-0.551,0.053-1.103,0.101-1.654,0.18c-0.402,0.061-0.805,0.148-1.212,0.224c-0.595,0.114-1.19,0.223-1.781,0.372
	c-0.407,0.101-0.801,0.232-1.204,0.346c-0.564,0.167-1.129,0.324-1.689,0.521c-0.521,0.184-1.024,0.407-1.532,0.617
	c-0.42,0.175-0.844,0.333-1.256,0.525c-0.836,0.389-1.645,0.822-2.446,1.282c-0.083,0.048-0.166,0.083-0.249,0.131
	c-0.009,0.004-0.013,0.009-0.018,0.015c-2.67,1.575-5.133,3.557-7.273,5.929c-1.418,1.562-2.661,3.257-3.72,5.042
	c-0.009,0.022-0.022,0.04-0.035,0.057L642.195,366.311c-0.136,0.232-0.241,0.473-0.368,0.705c-0.28,0.498-0.547,1.002-0.796,1.514
	c-0.228,0.464-0.438,0.932-0.64,1.4c-0.188,0.438-0.367,0.88-0.534,1.326c-0.206,0.547-0.398,1.099-0.573,1.654
	c-0.119,0.386-0.232,0.774-0.337,1.168c-0.162,0.6-0.31,1.199-0.437,1.803c-0.079,0.385-0.149,0.774-0.214,1.16
	c-0.102,0.595-0.188,1.19-0.254,1.785c-0.048,0.438-0.083,0.875-0.114,1.317c-0.035,0.543-0.065,1.081-0.075,1.624
	c-0.009,0.508,0.005,1.015,0.022,1.527c0.014,0.473,0.035,0.941,0.07,1.414c0.044,0.564,0.11,1.133,0.184,1.698
	c0.057,0.424,0.119,0.844,0.193,1.265c0.101,0.577,0.223,1.155,0.359,1.729c0.097,0.424,0.201,0.844,0.32,1.26
	c0.148,0.538,0.315,1.076,0.495,1.61c0.157,0.468,0.328,0.932,0.507,1.392c0.179,0.463,0.372,0.923,0.573,1.382
	c0.236,0.534,0.495,1.055,0.762,1.576c0.118,0.232,0.209,0.468,0.336,0.696c0.066,0.123,0.154,0.228,0.224,0.346
	c0.644,1.147,1.34,2.272,2.132,3.335c0.026,0.035,0.057,0.066,0.079,0.096c0.731,0.972,1.531,1.896,2.381,2.783
	c0.275,0.293,0.56,0.569,0.849,0.85c0.634,0.617,1.3,1.208,1.991,1.772c0.323,0.263,0.63,0.538,0.962,0.783
	c0.937,0.709,1.912,1.382,2.949,1.995c0.018,0.009,0.031,0.018,0.048,0.027c0.972,0.569,1.991,1.054,3.015,1.519
	c0.276,0.122,0.538,0.289,0.814,0.402c0.307,0.127,0.63,0.206,0.937,0.319c3.62,1.383,7.379,2.105,11.116,2.105c0,0,0.009,0,0.014,0
	c0.013,0,0.03,0,0.043,0c2.604,0,5.229-0.337,7.812-1.006c0.315-0.079,0.613-0.206,0.923-0.293c0.941-0.275,1.877-0.555,2.806-0.923
	c0.648-0.259,1.269-0.586,1.899-0.889c0.525-0.25,1.063-0.456,1.58-0.735l0.232-0.127c0.021-0.013,0.043-0.025,0.065-0.035
	l158.334-86.537v909.841c-5.212-4.901-10.743-9.404-16.647-13.475c-48.773-33.641-113.368-33.615-181.427-33.589h-5.891
	c-24.678,0-43.281-7.29-56.879-22.283c-29.588-32.639-30.55-96.035-28.433-117.639c0.109-1.064,0.167-2.137,0.167-3.21V885.151
	c57.732-14.416,100.637-66.698,100.637-128.838c0-73.225-59.575-132.799-132.799-132.799c-73.224,0-132.798,59.575-132.798,132.799
	c0,62.704,43.692,115.354,102.222,129.206v155.821c-1.217,14.548-6.74,107.597,44.323,164.174
	c25.815,28.603,60.66,43.105,103.561,43.105h5.913c60.655-0.034,113.11-0.043,145.783,22.495
	c22.091,15.237,51.456,49.521,51.456,170.867c0,2.417,0.298,4.752,0.814,7.013v36.479
	c-71.505,14.574-125.477,77.941-125.477,153.688c0,86.483,70.362,156.846,156.846,156.846c86.485,0,156.847-70.362,156.847-156.846
	c0-75.747-53.973-139.114-125.477-153.688v-119.191c0-86.992,13.938-143.084,42.62-171.48c33.522-33.195,91.893-32.613,165.8-31.895
	c10.958,0.112,22.153,0.219,33.563,0.219c52.507,0,94.086-16.849,123.582-50.092c50.612-57.03,45.009-142.509,43.597-157.389
	V807.131h74.869c17.326,0,31.37-14.044,31.37-31.37V565.14C1421.019,547.814,1406.975,533.77,1389.648,533.77z M451.546,756.313
	c0-38.63,31.43-70.06,70.06-70.06c38.63,0,70.061,31.43,70.061,70.06c0,38.634-31.43,70.06-70.061,70.06
	C482.977,826.374,451.546,794.947,451.546,756.313z M874.248,97.029l119.998,203.012l-104.952-57.36
	c-0.097-0.052-0.197-0.092-0.298-0.141c-0.521-0.28-1.055-0.521-1.588-0.77c-0.429-0.197-0.853-0.411-1.291-0.586
	c-0.407-0.171-0.832-0.307-1.248-0.456c-0.568-0.206-1.137-0.419-1.715-0.591c-0.245-0.074-0.499-0.127-0.749-0.193
	c-0.744-0.201-1.488-0.397-2.236-0.542c-0.109-0.017-0.219-0.026-0.327-0.048c-0.884-0.161-1.773-0.296-2.657-0.38
	c-0.14-0.009-0.28-0.009-0.415-0.018c-0.859-0.07-1.712-0.122-2.569-0.118c-0.381,0-0.766,0.039-1.146,0.052
	c-0.613,0.022-1.226,0.035-1.829,0.092c-0.552,0.053-1.094,0.153-1.646,0.236c-0.446,0.066-0.897,0.114-1.339,0.202
	c-0.529,0.105-1.049,0.25-1.579,0.381c-0.468,0.118-0.937,0.218-1.396,0.354c-0.434,0.131-0.857,0.298-1.287,0.447
	c-0.56,0.192-1.119,0.38-1.671,0.608c-0.333,0.136-0.656,0.301-0.989,0.45c-0.634,0.285-1.265,0.578-1.882,0.91
	c-0.074,0.04-0.158,0.07-0.232,0.11l-104.952,57.36L874.248,97.029z M968.356,1639.161c0,51.893-42.219,94.106-94.108,94.106
	s-94.108-42.214-94.108-94.106c0-51.891,42.218-94.108,94.108-94.108S968.356,1587.271,968.356,1639.161z M1358.279,744.392
	h-147.885V596.509h147.885V744.392z"/>
</svg>