<?xml version="1.0" encoding="UTF-8" standalone="no"?>
<svg
   xmlns:dc="http://purl.org/dc/elements/1.1/"
   xmlns:cc="http://creativecommons.org/ns#"
   xmlns:rdf="http://www.w3.org/1999/02/22-rdf-syntax-ns#"
   xmlns:svg="http://www.w3.org/2000/svg"
   xmlns="http://www.w3.org/2000/svg"
   version="1.1"
   id="mdi-tools"
   width="48"
   height="48"
   viewBox="0 0 48 48">
  <metadata
     id="metadata1684">
    <rdf:RDF>
      <cc:Work
         rdf:about="">
        <dc:format>image/svg+xml</dc:format>
        <dc:type
           rdf:resource="http://purl.org/dc/dcmitype/StillImage" />
        <dc:title></dc:title>
      </cc:Work>
    </rdf:RDF>
  </metadata>
  <defs
     id="defs1682" />
  <path
     fill="#000000"
     fill-opacity="1"
     stroke-width="0.4"
     stroke-linejoin="round"
     d="m 24.00012,39.99999 -9.02776,-11.9802 c 2.51172,-1.8956 5.63846,-3.0198 9.02776,-3.0198 3.3892,0 6.515799,1.124 9.027599,3.0196 z m 0,-3.3232 6.134799,-8.1412 c -1.827399,-0.9798 -3.916199,-1.5356 -6.134799,-1.5356 -2.2186,0 -4.30738,0.5558 -6.13474,1.5356 z m 0,-29.67678 c 7.456399,0 14.335001,2.47292 19.8608,6.64338 l -1.2036,1.59736 c -5.191,-3.91768 -11.652801,-6.24076 -18.6572,-6.24076 -7.00454,0 -13.46646,2.32312 -18.6573405,6.2409 l -1.2037,-1.59734 C 9.6648599,9.47301 16.5437,7.00001 24.00012,7.00001 Z m 0,11.99998 c 4.7448,0 9.122199,1.5736 12.6386,4.2276 l -1.2036,1.5974 c -3.181601,-2.4012 -7.142,-3.825 -11.435,-3.825 -4.2931,0 -8.25364,1.4238 -11.43516,3.825 l -1.2037,-1.5972 c 3.51642,-2.654 7.89384,-4.2278 12.63886,-4.2278 z m 0,-5.99998 c 6.100599,0 11.7286,2.0233 16.249801,5.43546 l -1.203801,1.59732 c -4.186201,-3.15936 -9.397201,-5.03278 -15.046,-5.03278 -5.64882,0 -10.86006,1.87348 -15.0462405,5.03298 l -1.2037,-1.59736 C 12.27126,15.02337 17.8994,13.00001 24.00012,13.00001 Z"
     id="path1755" />
</svg>
