<?xml version="1.0" encoding="UTF-8" standalone="no"?>
<svg
   xmlns:dc="http://purl.org/dc/elements/1.1/"
   xmlns:cc="http://creativecommons.org/ns#"
   xmlns:rdf="http://www.w3.org/1999/02/22-rdf-syntax-ns#"
   xmlns:svg="http://www.w3.org/2000/svg"
   xmlns="http://www.w3.org/2000/svg"
   xmlns:sodipodi="http://sodipodi.sourceforge.net/DTD/sodipodi-0.dtd"
   xmlns:inkscape="http://www.inkscape.org/namespaces/inkscape"
   version="1.1"
   width="48"
   height="48"
   viewBox="0 0 48 48"
   enable-background="new 0 0 24.00 24.00"
   xml:space="preserve"
   id="svg4"
   sodipodi:docname="appbar.book.open.svg"
   inkscape:version="1.0.1 (3bc2e813f5, 2020-09-07)"><sodipodi:namedview
   pagecolor="#ffffff"
   bordercolor="#666666"
   borderopacity="1"
   objecttolerance="10"
   gridtolerance="10"
   guidetolerance="10"
   inkscape:pageopacity="0"
   inkscape:pageshadow="2"
   inkscape:window-width="1914"
   inkscape:window-height="1004"
   id="namedview11"
   showgrid="true"
   inkscape:zoom="1"
   inkscape:cx="24"
   inkscape:cy="24"
   inkscape:window-x="0"
   inkscape:window-y="54"
   inkscape:window-maximized="0"
   inkscape:current-layer="svg4"
   inkscape:document-rotation="0"><inkscape:grid
     type="xygrid"
     id="grid7036"
     originx="0"
     originy="0" /></sodipodi:namedview><metadata
   id="metadata10"><rdf:RDF><cc:Work
       rdf:about=""><dc:format>image/svg+xml</dc:format><dc:type
         rdf:resource="http://purl.org/dc/dcmitype/StillImage" /><dc:title /></cc:Work></rdf:RDF></metadata><defs
   id="defs8">















	

		
	</defs>

<path
   id="path1054"
   style="fill:none;stroke:#000000;stroke-width:2;stroke-linecap:round;stroke-linejoin:round;stroke-opacity:1"
   d="M 24,14.666667 C 29.333333,9.3333336 31.333333,9.3333336 38,9.3333336 M 24,37.333333 C 28.614032,33.333333 31.333333,32 38,32 m 0,0 V 9.3333336 M 24,14.666667 c 0.171488,5.812943 0,22.666666 0,22.666666"
   sodipodi:nodetypes="cccccccc" /><path
   id="path1054-7"
   style="fill:none;stroke:#000000;stroke-width:2;stroke-linecap:round;stroke-linejoin:round;stroke-opacity:1"
   d="M 39.28119,13.08902 C 40.12712,13.0283 41.028743,13 42,13 M 26.166666,39.833333 C 30.7807,35.833333 35.333333,36 42,36 m 0,0 V 13"
   sodipodi:nodetypes="cccccc" /><path
   id="path1099"
   style="fill:none;stroke:#000000;stroke-width:2;stroke-linecap:round;stroke-linejoin:round;stroke-opacity:1"
   d="M 24,14.666667 C 18.666666,9.3333336 16.666666,9.3333336 9.9999999,9.3333336 M 24,37.333333 C 19.385967,33.333333 16.666666,32 9.9999999,32 m 0,0 V 9.3333336 M 24,14.666667 c -0.171488,5.812943 0,22.666666 0,22.666666"
   sodipodi:nodetypes="cccccccc" /><path
   style="fill:none;stroke:#000000;stroke-width:2;stroke-linecap:butt;stroke-linejoin:miter;stroke-opacity:1"
   d="m 21.833333,39.833333 c 1.219957,0.572627 3.058176,0.68452 4.333333,0"
   id="path1107" /><path
   id="path7038"
   style="fill:none;stroke:#000000;stroke-width:2;stroke-linecap:round;stroke-linejoin:round;stroke-opacity:1"
   d="M 8.718809,13.08902 C 7.872879,13.0283 6.971256,13 5.999999,13 M 21.833333,39.833333 C 17.219299,35.833333 12.666666,36 5.999999,36 m 0,0 V 13"
   sodipodi:nodetypes="cccccc" /></svg>
