<?xml version="1.0" encoding="UTF-8" standalone="no"?>
<svg
   xmlns:dc="http://purl.org/dc/elements/1.1/"
   xmlns:cc="http://creativecommons.org/ns#"
   xmlns:rdf="http://www.w3.org/1999/02/22-rdf-syntax-ns#"
   xmlns:svg="http://www.w3.org/2000/svg"
   xmlns="http://www.w3.org/2000/svg"
   xmlns:sodipodi="http://sodipodi.sourceforge.net/DTD/sodipodi-0.dtd"
   xmlns:inkscape="http://www.inkscape.org/namespaces/inkscape"
   version="1.1"
   width="144"
   height="144"
   viewBox="0 0 144 144"
   enable-background="new 0 0 24.00 24.00"
   xml:space="preserve"
   id="svg4"
   sodipodi:docname="appbar.settings.large.svg"
   inkscape:version="1.0.1 (3bc2e813f5, 2020-09-07)"
   inkscape:export-filename="/home/john/src/koreader/resources/icons/appbar.settings.png"
   inkscape:export-xdpi="96"
   inkscape:export-ydpi="96"><metadata
   id="metadata10"><rdf:RDF><cc:Work
       rdf:about=""><dc:format>image/svg+xml</dc:format><dc:type
         rdf:resource="http://purl.org/dc/dcmitype/StillImage" /><dc:title /></cc:Work></rdf:RDF></metadata><defs
   id="defs8" /><sodipodi:namedview
   pagecolor="#ffffff"
   bordercolor="#666666"
   borderopacity="1"
   objecttolerance="10"
   gridtolerance="10"
   guidetolerance="10"
   inkscape:pageopacity="0"
   inkscape:pageshadow="2"
   inkscape:window-width="1180"
   inkscape:window-height="968"
   id="namedview6"
   showgrid="true"
   inkscape:zoom="4.0694444"
   inkscape:cx="72"
   inkscape:cy="49.63454"
   inkscape:window-x="0"
   inkscape:window-y="90"
   inkscape:window-maximized="0"
   inkscape:current-layer="svg4"
   inkscape:snap-page="true"
   inkscape:document-rotation="0"
   inkscape:snap-object-midpoints="true"><inkscape:grid
     type="xygrid"
     id="grid81"
     originx="0"
     originy="0" /></sodipodi:namedview>

<circle
   style="fill:none;stroke:#000000;stroke-width:1.8"
   id="path86"
   cx="32"
   cy="32"
   r="0" /><path
   id="path88"
   style="fill:none;stroke:#000000;stroke-width:3.92472;stroke-linejoin:round"
   d="M 60.436079,19.962361 59.532646,33.495009 A 40.473718,40.473718 0 0 0 44.88577,41.953383 l -12.169972,-5.985231 -5.781962,10.013028 -5.781957,10.013028 11.270303,7.55118 a 40.473718,40.473718 0 0 0 -0.895903,8.454611 40.473718,40.473718 0 0 0 0.895903,8.45461 l -11.270303,7.551179 5.781957,10.01303 5.781962,10.013032 12.169972,-5.98523 a 40.473718,40.473718 0 0 0 14.646876,8.45838 l 0.903433,13.53264 H 71.999996 83.56392 L 84.467352,110.505 a 40.473718,40.473718 0 0 0 14.646873,-8.45838 l 12.169975,5.98523 5.78196,-10.013032 5.78196,-10.01303 -11.27031,-7.551179 a 40.473718,40.473718 0 0 0 0.89591,-8.45461 40.473718,40.473718 0 0 0 -0.89591,-8.454611 L 122.84812,55.994208 117.06616,45.98118 111.2842,35.968152 99.114225,41.953383 A 40.473718,40.473718 0 0 0 84.467352,33.495009 L 83.56392,19.962361 H 71.999996 Z" /><circle
   style="fill:none;stroke:#000000;stroke-width:4.23529;stroke-linejoin:round;stroke-opacity:1"
   id="path839"
   cx="72"
   cy="72"
   r="15.882353" /></svg>
