<?xml version="1.0" encoding="UTF-8" standalone="no"?>
<svg
   xmlns:dc="http://purl.org/dc/elements/1.1/"
   xmlns:cc="http://creativecommons.org/ns#"
   xmlns:rdf="http://www.w3.org/1999/02/22-rdf-syntax-ns#"
   xmlns:svg="http://www.w3.org/2000/svg"
   xmlns="http://www.w3.org/2000/svg"
   version="1.1"
   width="144"
   height="144"
   viewBox="0 0 144 144"
   enable-background="new 0 0 24.00 24.00"
   xml:space="preserve"
   id="svg4"><metadata
   id="metadata10"><rdf:RDF><cc:Work
       rdf:about=""><dc:format>image/svg+xml</dc:format><dc:type
         rdf:resource="http://purl.org/dc/dcmitype/StillImage" /><dc:title></dc:title></cc:Work></rdf:RDF></metadata><defs
   id="defs8">















	

		
	</defs>

<path
   style="fill:none;stroke:#000000;stroke-width:4;stroke-linecap:square;stroke-linejoin:miter"
   id="path1274"
   d="m 49.836188,87.631612 a 36,36 0 0 1 44.327625,10e-7 L 72,116 Z" /><path
   style="fill:none;stroke:#808080;stroke-width:3.99999;stroke-linecap:square;stroke-linejoin:miter"
   id="path1278"
   d="m 37.623435,72 a 55.8368,55.8368 0 0 1 68.753135,2e-6" /><path
   style="fill:none;stroke:#808080;stroke-width:3.99998;stroke-linecap:square;stroke-linejoin:miter"
   id="path1280"
   d="m 27.041989,58.283792 a 73.023918,73.242462 0 0 1 89.916021,2e-6" /><path
   style="fill:none;stroke:#808080;stroke-width:3.99998;stroke-linecap:square;stroke-linejoin:miter"
   id="path1282"
   d="M 16.000004,44.108392 A 90.959076,91.231293 0 0 1 128,44.108394" /><g
   id="g1438"
   transform="translate(-6)"><g
     id="g1433"><rect
       style="fill:none;stroke:#000000;stroke-width:4;stroke-linecap:square;stroke-linejoin:miter"
       id="rect1413"
       width="28"
       height="24"
       x="104"
       y="96"
       ry="4.0000005" /><path
       id="path1421"
       style="fill:none;stroke:#000000;stroke-width:4;stroke-linecap:butt;stroke-linejoin:miter;stroke-opacity:1"
       d="M 110,96.000001 V 90 c 0,-4.418278 3.58172,-8 8,-8 4.41828,0 8,3.581722 8,8 v 6.000001" /></g></g></svg>
