<?xml version="1.0" encoding="UTF-8" standalone="no"?>
<svg
   xmlns:dc="http://purl.org/dc/elements/1.1/"
   xmlns:cc="http://creativecommons.org/ns#"
   xmlns:rdf="http://www.w3.org/1999/02/22-rdf-syntax-ns#"
   xmlns:svg="http://www.w3.org/2000/svg"
   xmlns="http://www.w3.org/2000/svg"
   xmlns:sodipodi="http://sodipodi.sourceforge.net/DTD/sodipodi-0.dtd"
   xmlns:inkscape="http://www.inkscape.org/namespaces/inkscape"
   version="1.1"
   id="mdi-tools"
   width="48"
   height="48"
   viewBox="0 0 48 48"
   sodipodi:docname="appbar.tools.svg"
   inkscape:version="1.0.1 (3bc2e813f5, 2020-09-07)"
   inkscape:export-xdpi="96"
   inkscape:export-ydpi="96">
  <metadata
     id="metadata1684">
    <rdf:RDF>
      <cc:Work
         rdf:about="">
        <dc:format>image/svg+xml</dc:format>
        <dc:type
           rdf:resource="http://purl.org/dc/dcmitype/StillImage" />
        <dc:title />
      </cc:Work>
    </rdf:RDF>
  </metadata>
  <defs
     id="defs1682" />
  <sodipodi:namedview
     pagecolor="#ffffff"
     bordercolor="#666666"
     borderopacity="1"
     objecttolerance="10"
     gridtolerance="10"
     guidetolerance="10"
     inkscape:pageopacity="0"
     inkscape:pageshadow="2"
     inkscape:window-width="1914"
     inkscape:window-height="986"
     id="namedview1680"
     showgrid="false"
     inkscape:zoom="16.4375"
     inkscape:cx="24"
     inkscape:cy="24"
     inkscape:window-x="0"
     inkscape:window-y="72"
     inkscape:window-maximized="0"
     inkscape:current-layer="mdi-tools"
     inkscape:snap-page="true"
     inkscape:document-rotation="0" />
  <path
     d="m 40.467883,38.234366 -2.422047,2.42205 c -0.665273,0.661327 -1.739716,0.661327 -2.40499,0 L 15.377507,20.427189 c -0.554664,0.160689 -1.128271,0.246729 -1.705669,0.25585 -4.6814264,-0.0033 -7.9688911,-4.61275 -6.4474257,-9.040041 l 4.3323977,4.332397 0.904005,-0.904005 2.422048,-2.422048 0.904005,-0.904005 -4.332398,-4.3323971 c 4.427291,-1.5214653 9.036699,1.7659987 9.040042,6.4474271 -0.0091,0.577397 -0.09516,1.151004 -0.255851,1.705667 l 20.229222,20.263339 c 0.66133,0.665273 0.66133,1.73972 0,2.404993 M 7.3438089,35.829373 c -0.6613276,0.665273 -0.6613276,1.73972 0,2.404993 l 2.422049,2.42205 c 0.6652751,0.661327 1.7397181,0.661327 2.4049931,0 l 9.330005,-9.31295 -4.827042,-4.827041 z M 37.551193,7.0376926 30.728521,10.449029 v 3.411338 l -3.701301,3.701299 3.411337,3.411336 3.701299,-3.7013 h 3.411337 l 3.411337,-6.822673 z"
     id="path1677"
     style="fill:none;stroke:#000000;stroke-width:1.8;stroke-miterlimit:4;stroke-dasharray:none;stroke-opacity:1"
     sodipodi:nodetypes="ccccccccccccccccccccccccccccccc" />
</svg>
