<?xml version="1.0" encoding="UTF-8" standalone="no"?>
<svg
   xmlns:dc="http://purl.org/dc/elements/1.1/"
   xmlns:cc="http://creativecommons.org/ns#"
   xmlns:rdf="http://www.w3.org/1999/02/22-rdf-syntax-ns#"
   xmlns:svg="http://www.w3.org/2000/svg"
   xmlns="http://www.w3.org/2000/svg"
   xmlns:sodipodi="http://sodipodi.sourceforge.net/DTD/sodipodi-0.dtd"
   xmlns:inkscape="http://www.inkscape.org/namespaces/inkscape"
   id="svg4"
   width="48"
   height="48"
   enable-background="new 0 0 24.00 24.00"
   version="1.1"
   viewBox="0 0 48 48"
   xml:space="preserve"
   sodipodi:docname="appbar.rotation.90CCW.svg"
   inkscape:version="1.0.2 (e86c870879, 2021-01-15)"><defs
   id="defs14" /><sodipodi:namedview
   pagecolor="#ffffff"
   bordercolor="#666666"
   borderopacity="1"
   objecttolerance="10"
   gridtolerance="10"
   guidetolerance="10"
   inkscape:pageopacity="0"
   inkscape:pageshadow="2"
   inkscape:window-width="2560"
   inkscape:window-height="1381"
   id="namedview12"
   showgrid="true"
   inkscape:zoom="22.5"
   inkscape:cx="24"
   inkscape:cy="24.057375"
   inkscape:window-x="0"
   inkscape:window-y="0"
   inkscape:window-maximized="1"
   inkscape:current-layer="svg4"
   inkscape:document-rotation="0"><inkscape:grid
     type="xygrid"
     id="grid837" /></sodipodi:namedview><metadata
   id="metadata10"><rdf:RDF><cc:Work
       rdf:about=""><dc:format>image/svg+xml</dc:format><dc:type
         rdf:resource="http://purl.org/dc/dcmitype/StillImage" /><dc:title /></cc:Work></rdf:RDF></metadata>

<g
   id="g910"
   transform="matrix(-1,0,0,1,46.299999,6.0999387)"
   fill="none"
   stroke="#000000"
   stroke-width="1.6"><path
     id="path1207"
     d="m 26,5.1 c 6.4,0.33 9.3,2.1 11,6.6" /><path
     id="path1209"
     d="m 33,11 4.8,1 1,-4.8" /></g><rect
   id="rect1443"
   transform="matrix(0,1,1,0,0,0)"
   x="23"
   y="3.999999"
   width="19"
   height="30"
   ry="2.5999999"
   fill="none"
   stroke="#000000"
   stroke-linejoin="round"
   stroke-width="2" /><g
   id="g906"
   transform="matrix(-1,0,0,1,46.799999,1.5)"
   fill="none"
   stroke="#000000"
   stroke-linejoin="round"
   stroke-width="2"><path
     id="rect1037"
     d="M 2.8,6.5 2.799999,5 c -9e-7,-1.4 1.1,-2.5 2.5,-2.5 h 1.3 m 2.9,0 h 5.7 m 2.9,0 h 1.3 c 1.4,0 2.5,1.1 2.5,2.5 v 1.5 m 0,3 v 5 m 0,3 v 4 M 2.8,23.5 v -6 m 0,-3 v -5"
     sodipodi:nodetypes="cssccccssccccccccc"
     style="stroke-width:2;stroke-miterlimit:4;stroke-dasharray:none" /><path
     id="rect1037-6"
     d="M 15.2,33 H 9.5 M 6.6,33 H 5.3 C 3.9,33 2.8,31.9 2.8,30.5 V 29 m 0,-3 v -5"
     style="stroke-width:2;stroke-miterlimit:4;stroke-dasharray:none" /></g><rect
   id="rect1443-5"
   transform="matrix(0,1,1,0,0,0)"
   x="23"
   y="30.099998"
   width="19"
   height="2"
   ry="0.98000002"
   fill="none"
   stroke="#000000"
   stroke-linejoin="round"
   stroke-width="2" /></svg>
