<?xml version="1.0" encoding="UTF-8" standalone="no"?>
<svg
   xmlns:dc="http://purl.org/dc/elements/1.1/"
   xmlns:cc="http://creativecommons.org/ns#"
   xmlns:rdf="http://www.w3.org/1999/02/22-rdf-syntax-ns#"
   xmlns:svg="http://www.w3.org/2000/svg"
   xmlns="http://www.w3.org/2000/svg"
   xmlns:sodipodi="http://sodipodi.sourceforge.net/DTD/sodipodi-0.dtd"
   xmlns:inkscape="http://www.inkscape.org/namespaces/inkscape"
   id="svg4"
   width="48"
   height="48"
   enable-background="new 0 0 24.00 24.00"
   version="1.1"
   viewBox="0 0 48 48"
   xml:space="preserve"
   sodipodi:docname="appbar.rotation.90CW.svg"
   inkscape:version="1.0.2 (e86c870879, 2021-01-15)"><defs
   id="defs14" /><sodipodi:namedview
   pagecolor="#ffffff"
   bordercolor="#666666"
   borderopacity="1"
   objecttolerance="10"
   gridtolerance="10"
   guidetolerance="10"
   inkscape:pageopacity="0"
   inkscape:pageshadow="2"
   inkscape:window-width="2560"
   inkscape:window-height="1381"
   id="namedview12"
   showgrid="true"
   inkscape:zoom="22.5"
   inkscape:cx="21.577778"
   inkscape:cy="24.057375"
   inkscape:window-x="0"
   inkscape:window-y="0"
   inkscape:window-maximized="1"
   inkscape:current-layer="svg4"
   inkscape:document-rotation="0"><inkscape:grid
     type="xygrid"
     id="grid837" /></sodipodi:namedview><metadata
   id="metadata10"><rdf:RDF><cc:Work
       rdf:about=""><dc:format>image/svg+xml</dc:format><dc:type
         rdf:resource="http://purl.org/dc/dcmitype/StillImage" /><dc:title /></cc:Work></rdf:RDF></metadata>

<g
   id="g910"
   transform="translate(1.7,2.9999387)"
   fill="none"
   stroke="#000000"
   stroke-width="1.6"><path
     id="path1207"
     d="m 26,5.1 c 6.4,0.33 9.3,2.1 11,6.6" /><path
     id="path1209"
     d="m 33,11 4.8,1 1,-4.8" /></g><rect
   id="rect1443"
   transform="rotate(90)"
   x="20"
   y="-44"
   width="19"
   height="30"
   ry="2.5999999"
   fill="none"
   stroke="#000000"
   stroke-linejoin="round"
   stroke-width="2" /><g
   id="g906"
   transform="translate(1.2 1.5)"
   fill="none"
   stroke="#000"
   stroke-linejoin="round"
   stroke-width="2"><path
     id="rect1037"
     d="M 2.8,6.5 2.799999,5 c -9e-7,-1.4 1.1,-2.5 2.5,-2.5 h 1.3 m 2.9,0 h 5.7 m 2.9,0 h 1.3 c 1.4,0 2.5,1.1 2.5,2.5 v 1.5 m 0,3 v 5 M 2.8,23.5 v -6 m 0,-3 v -5"
     sodipodi:nodetypes="cssccccssccccccc"
     style="stroke-width:2;stroke-miterlimit:4;stroke-dasharray:none" /><path
     id="rect1037-6"
     d="M 15.2,33 H 9.5 M 6.6,33 H 5.3 C 3.9,33 2.8,31.9 2.8,30.5 V 29 m 0,-3 v -5"
     style="stroke-width:2;stroke-miterlimit:4;stroke-dasharray:none" /></g><rect
   id="rect1443-5"
   transform="rotate(90)"
   x="20"
   y="-17.9"
   width="19"
   height="2"
   ry="0.98000002"
   fill="none"
   stroke="#000000"
   stroke-linejoin="round"
   stroke-width="2" /><g
   aria-label="k"
   id="text841"
   style="font-style:normal;font-variant:normal;font-weight:normal;font-stretch:normal;font-size:16px;line-height:125%;font-family:Diavlo;-inkscape-font-specification:Diavlo;letter-spacing:0px;word-spacing:0px;fill:#000000;fill-opacity:1;stroke:none;stroke-width:1px;stroke-linecap:butt;stroke-linejoin:miter;stroke-opacity:1"
   transform="rotate(90,31.024,29.364)"><path
     d="m 30.948,30.36 c 1.552,-0.192 2.448,-2.448 3.104,-3.408 -0.176,-0.048 -0.336,-0.064 -0.48,-0.064 -0.96,0 -1.232,0.48 -1.328,0.656 -0.864,1.616 -1.488,2.368 -2.944,2.368 v -6.096 c 0,-0.8 -1.28,-0.8 -1.28,-0.8 v 11.296 c 0,0.8 1.28,0.8 1.28,0.8 v -4.16 c 4.048,0.32 2.816,4.16 4.656,4.16 0.208,0 0.672,-0.112 0.672,-0.112 -0.672,-1.056 -0.912,-4.016 -3.68,-4.64 z"
     id="path846" /></g></svg>
