<?xml version="1.0" encoding="utf-8"?>
<!DOCTYPE svg PUBLIC "-//W3C//DTD SVG 1.1//EN" "http://www.w3.org/Graphics/SVG/1.1/DTD/svg11.dtd">
<svg xmlns="http://www.w3.org/2000/svg" xmlns:xlink="http://www.w3.org/1999/xlink" version="1.1" baseProfile="full" width="24" height="24" viewBox="0 0 24.00 24.00" enable-background="new 0 0 24.00 24.00" xml:space="preserve">
	<path fill="#000000" fill-opacity="1" stroke-width="0.2" stroke-linejoin="round" d="M 11.503,22C 6.25634,22 2.00305,17.7467 2.00305,12.5C 2.00305,7.25329 6.25634,2.99999 11.503,2.99999C 16.7497,2.99999 21.003,7.25329 21.003,12.5C 21.003,17.7467 16.7498,22 11.503,22 Z M 11.5031,21C 16.1975,21 20.003,17.1944 20.003,12.5C 20.003,10.3319 19.1913,8.35344 17.8552,6.85187L 5.85494,18.8522C 7.35651,20.1883 9.33499,21 11.5031,21 Z M 11.5031,3.99999C 6.80863,3.99999 3.00305,7.80557 3.00305,12.5C 3.00305,14.6665 3.81361,16.6437 5.14801,18.1449L 17.1479,6.14495C 15.6468,4.81054 13.6696,3.99999 11.5031,3.99999 Z "/>
</svg>
