<?xml version="1.0" encoding="UTF-8" standalone="no"?>
<svg
   version="1.1"
   width="48"
   height="48"
   viewBox="0 0 48 48"
   enable-background="new 0 0 24.00 24.00"
   xml:space="preserve"
   id="svg4"
   sodipodi:docname="cre.render.working.svg"
   inkscape:version="1.2.2 (b0a8486541, 2022-12-01)"
   inkscape:export-xdpi="96"
   inkscape:export-ydpi="96"
   xmlns:inkscape="http://www.inkscape.org/namespaces/inkscape"
   xmlns:sodipodi="http://sodipodi.sourceforge.net/DTD/sodipodi-0.dtd"
   xmlns="http://www.w3.org/2000/svg"
   xmlns:svg="http://www.w3.org/2000/svg"
   xmlns:rdf="http://www.w3.org/1999/02/22-rdf-syntax-ns#"
   xmlns:cc="http://creativecommons.org/ns#"
   xmlns:dc="http://purl.org/dc/elements/1.1/"><sodipodi:namedview
   pagecolor="#ffffff"
   bordercolor="#666666"
   borderopacity="1"
   objecttolerance="10"
   gridtolerance="10"
   guidetolerance="10"
   inkscape:pageopacity="0"
   inkscape:pageshadow="2"
   inkscape:window-width="2560"
   inkscape:window-height="1381"
   id="namedview7"
   showgrid="true"
   inkscape:zoom="22.627417"
   inkscape:cx="34.029514"
   inkscape:cy="24.041631"
   inkscape:window-x="0"
   inkscape:window-y="0"
   inkscape:window-maximized="1"
   inkscape:current-layer="svg4"
   inkscape:document-rotation="0"
   inkscape:snap-page="true"
   showguides="true"
   inkscape:showpageshadow="2"
   inkscape:pagecheckerboard="0"
   inkscape:deskcolor="#d1d1d1"><inkscape:grid
     type="xygrid"
     id="grid893"
     empspacing="4"
     originx="0"
     originy="0" /></sodipodi:namedview><metadata
   id="metadata10"><rdf:RDF><cc:Work
       rdf:about=""><dc:format>image/svg+xml</dc:format><dc:type
         rdf:resource="http://purl.org/dc/dcmitype/StillImage" /></cc:Work></rdf:RDF></metadata><defs
   id="defs8" />

<g
   id="g16046"><circle
     style="fill:none;stroke:#000000;stroke-width:0.630275;stroke-miterlimit:4;stroke-dasharray:none"
     id="path86"
     cx="36.352852"
     cy="2.9329569"
     r="0" /><path
     id="path88"
     style="fill:none;stroke:#000000;stroke-width:0.630275;stroke-linejoin:round;stroke-miterlimit:4;stroke-dasharray:none"
     d="m 39.671842,1.5279519 -0.105446,1.5794989 a 4.7239969,4.7239969 0 0 0 -1.709549,0.9872414 l -1.42045,-0.698582 -0.674857,1.168697 -0.674857,1.168697 1.315444,0.881356 a 4.7239969,4.7239969 0 0 0 -0.104568,0.986802 4.7239969,4.7239969 0 0 0 0.104568,0.9868024 l -1.315444,0.8813556 0.674857,1.1686978 0.674857,1.168697 1.42045,-0.698581 a 4.7239969,4.7239969 0 0 0 1.709549,0.987242 l 0.105446,1.579498 h 1.349714 1.349714 l 0.105446,-1.579498 a 4.7239969,4.7239969 0 0 0 1.709549,-0.987242 l 1.42045,0.698581 0.674857,-1.168697 0.674857,-1.1686978 -1.315444,-0.8813556 a 4.7239969,4.7239969 0 0 0 0.104569,-0.9868024 4.7239969,4.7239969 0 0 0 -0.104569,-0.986802 l 1.315444,-0.881356 -0.674857,-1.168697 -0.674857,-1.168697 -1.42045,0.698582 A 4.7239969,4.7239969 0 0 0 42.476716,3.1074508 L 42.37127,1.5279519 h -1.349714 z" /><circle
     style="fill:none;stroke:#000000;stroke-width:0.630275;stroke-linejoin:round;stroke-miterlimit:4;stroke-dasharray:none;stroke-opacity:1"
     id="path839-0"
     cx="41.021557"
     cy="7.6016626"
     r="1.8537508" /></g><g
   id="g16051"
   style="mix-blend-mode:normal;stroke:#fffefe;stroke-width:0.15;stroke-linecap:round;stroke-linejoin:round;stroke-dasharray:none;stroke-opacity:1"><path
     style="color:#000000;fill:#000000;stroke:#fffefe;stroke-width:0.15;stroke-linecap:round;stroke-linejoin:round;stroke-dasharray:none;stroke-opacity:1"
     d="M 14.085938,5 C 11.839752,5 10,6.8397511 10,9.0859375 V 13 h 2 V 9.0859375 C 12,7.9131559 12.913157,7 14.085938,7 H 33.914062 C 35.086843,7 36,7.9131559 36,9.0859375 V 13 h 2 V 9.0859375 C 38,6.8397511 36.160248,5 33.914062,5 Z M 10,33 v 5.914062 C 10,41.160248 11.839752,43 14.085938,43 H 33.914062 C 36.160248,43 38,41.160248 38,38.914062 V 33 h -2 v 5.914062 C 36,40.086843 35.086843,41 33.914062,41 H 14.085938 C 12.913157,41 12,40.086843 12,38.914062 V 33 Z"
     id="rect1443" /><path
     style="color:#000000;fill:#000000;fill-rule:evenodd;stroke:#fffefe;stroke-width:0.15;stroke-linecap:round;stroke-linejoin:round;stroke-dasharray:none;stroke-opacity:1"
     d="m 40,13 v 20 h 2 V 13 Z"
     id="path904" /><path
     style="color:#000000;fill:#000000;fill-rule:evenodd;stroke:#fffefe;stroke-width:0.15;stroke-linecap:round;stroke-linejoin:round;stroke-dasharray:none;stroke-opacity:1"
     d="m 14,13 v 20 h 2 V 13 Z"
     id="path904-5" /></g><g
   id="g16059"><path
     style="fill:none;stroke:#000000;stroke-width:2;stroke-linecap:butt;stroke-linejoin:miter;stroke-opacity:1"
     d="M 19,19 H 30"
     id="path1073" /><path
     style="fill:none;stroke:#000000;stroke-width:2;stroke-linecap:butt;stroke-linejoin:miter;stroke-opacity:1"
     d="M 19,15 H 37.000001"
     id="path1075" /><path
     style="fill:none;stroke:#000000;stroke-width:2;stroke-linecap:butt;stroke-linejoin:miter;stroke-opacity:1"
     d="M 15,11 H 33.000001"
     id="path1077" /><path
     style="fill:none;stroke:#000000;stroke-width:2;stroke-linecap:butt;stroke-linejoin:miter;stroke-opacity:1"
     d="M 15,35 H 26.127273"
     id="path837" /><path
     style="fill:none;stroke:#000000;stroke-width:2;stroke-linecap:butt;stroke-linejoin:miter;stroke-opacity:1"
     d="M 19,31 H 36.999999"
     id="path839" /><path
     style="fill:none;stroke:#000000;stroke-width:2;stroke-linecap:butt;stroke-linejoin:miter;stroke-opacity:1"
     d="M 19,27 H 37"
     id="path841" /></g></svg>
