<?xml version="1.0" encoding="UTF-8" standalone="no"?>
<svg
   version="1.1"
   width="48"
   height="48"
   viewBox="0 0 48 48"
   enable-background="new 0 0 24.00 24.00"
   xml:space="preserve"
   id="svg4"
   sodipodi:docname="cre.render.reload.svg"
   inkscape:version="1.2.2 (b0a8486541, 2022-12-01)"
   inkscape:export-xdpi="96"
   inkscape:export-ydpi="96"
   xmlns:inkscape="http://www.inkscape.org/namespaces/inkscape"
   xmlns:sodipodi="http://sodipodi.sourceforge.net/DTD/sodipodi-0.dtd"
   xmlns="http://www.w3.org/2000/svg"
   xmlns:svg="http://www.w3.org/2000/svg"
   xmlns:rdf="http://www.w3.org/1999/02/22-rdf-syntax-ns#"
   xmlns:cc="http://creativecommons.org/ns#"
   xmlns:dc="http://purl.org/dc/elements/1.1/"><sodipodi:namedview
   pagecolor="#ffffff"
   bordercolor="#666666"
   borderopacity="1"
   objecttolerance="10"
   gridtolerance="10"
   guidetolerance="10"
   inkscape:pageopacity="0"
   inkscape:pageshadow="2"
   inkscape:window-width="2560"
   inkscape:window-height="1381"
   id="namedview7"
   showgrid="true"
   inkscape:zoom="22.627417"
   inkscape:cx="26.870058"
   inkscape:cy="24.748737"
   inkscape:window-x="0"
   inkscape:window-y="0"
   inkscape:window-maximized="1"
   inkscape:current-layer="svg4"
   inkscape:document-rotation="0"
   inkscape:snap-page="true"
   showguides="true"
   inkscape:showpageshadow="2"
   inkscape:pagecheckerboard="0"
   inkscape:deskcolor="#d1d1d1"><inkscape:grid
     type="xygrid"
     id="grid893"
     empspacing="4"
     originx="0"
     originy="0" /></sodipodi:namedview><metadata
   id="metadata10"><rdf:RDF><cc:Work
       rdf:about=""><dc:format>image/svg+xml</dc:format><dc:type
         rdf:resource="http://purl.org/dc/dcmitype/StillImage" /></cc:Work></rdf:RDF></metadata><defs
   id="defs8" />

<rect
   style="fill:none;stroke:#000000;stroke-width:2;stroke-linejoin:round"
   id="rect1443"
   width="26"
   height="36"
   x="11"
   y="6"
   ry="3.0857143"
   inkscape:label="frame" /><g
   id="g444"
   inkscape:label="content"><path
     style="fill:none;stroke:#000000;stroke-width:2;stroke-linecap:butt;stroke-linejoin:miter;stroke-opacity:1"
     d="M 15,19 H 26"
     id="path1073" /><path
     style="fill:none;stroke:#000000;stroke-width:2;stroke-linecap:butt;stroke-linejoin:miter;stroke-opacity:1"
     d="M 15,15 H 33.000001"
     id="path1075" /><path
     style="fill:none;stroke:#000000;stroke-width:2;stroke-linecap:butt;stroke-linejoin:miter;stroke-opacity:1"
     d="M 15,11 H 33.000001"
     id="path1077" /><path
     style="fill:none;stroke:#000000;stroke-width:2;stroke-linecap:butt;stroke-linejoin:miter;stroke-opacity:1"
     d="M 15,35 H 26.127273"
     id="path837" /><path
     style="fill:none;stroke:#000000;stroke-width:2;stroke-linecap:butt;stroke-linejoin:miter;stroke-opacity:1"
     d="M 15,31 H 32.999999"
     id="path839" /><path
     style="fill:none;stroke:#000000;stroke-width:2;stroke-linecap:butt;stroke-linejoin:miter;stroke-opacity:1"
     d="M 15,27 H 33"
     id="path841" /></g><g
   id="g9367"
   inkscape:label="sync_circle"
   transform="matrix(1.25,0,0,1.25,-39,5.75)"><circle
     style="fill:#ffffff;fill-opacity:1;fill-rule:evenodd;stroke:none;stroke-width:0.5;stroke-linecap:round;stroke-linejoin:round;stroke-opacity:1"
     id="path9155"
     cx="60"
     cy="25"
     r="8.8000002" /><path
     d="M 63.6,26.72 C 63.859805,26.183625 63.996468,25.595973 64,25 64,22.790861 62.209139,21 60,21 v 2 L 56.88,20 60,17 v 2 c 3.313708,0 6,2.686292 6,6 0.002,1.130471 -0.320791,2.237722 -0.93,3.19 M 54,25 c -0.002,-1.130471 0.320791,-2.237722 0.93,-3.19 l 1.47,1.47 c -0.259805,0.536375 -0.396468,1.124027 -0.4,1.72 0,2.209139 1.790861,4 4,4 v -2 l 3,3 -3,3 v -2 c -3.313708,0 -6,-2.686292 -6,-6 z"
     id="path8999"
     style="fill:#000000;fill-opacity:1;stroke:none;stroke-opacity:1"
     sodipodi:nodetypes="ccccccccccccccccccc" /></g></svg>
