<?xml version="1.0" encoding="utf-8"?>
<!DOCTYPE svg PUBLIC "-//W3C//DTD SVG 1.1//EN" "http://www.w3.org/Graphics/SVG/1.1/DTD/svg11.dtd">
<svg xmlns="http://www.w3.org/2000/svg" xmlns:xlink="http://www.w3.org/1999/xlink" version="1.1" baseProfile="full" width="24" height="24" viewBox="2 4 26.00 28.00" enable-background="new 0 0 24.00 24.00" xml:space="preserve">
	<path fill="#000000" fill-opacity="1" stroke-width="0.2" stroke-linejoin="round" d="M 18,6L 18,14L 16.0491,18L 11.8487,18L 13.7996,14L 12,14L 12,6L 18,6 Z M 17,13.7691L 17,7.00001L 13,7.00001L 13,13L 15.3999,13L 13.449,17L 15.4242,17L 17,13.7691 Z M 11,6L 11,14L 9.04907,18L 4.84866,18L 6.79959,14L 5,14L 5,6L 11,6 Z M 10,13.7691L 9.99999,7.00001L 5.99999,7.00001L 5.99999,13L 8.39992,13L 6.449,17L 8.4242,17L 10,13.7691 Z "/>
</svg>
