<?xml version="1.0" encoding="UTF-8" standalone="no"?>
<svg
   xmlns:dc="http://purl.org/dc/elements/1.1/"
   xmlns:cc="http://creativecommons.org/ns#"
   xmlns:rdf="http://www.w3.org/1999/02/22-rdf-syntax-ns#"
   xmlns:svg="http://www.w3.org/2000/svg"
   xmlns="http://www.w3.org/2000/svg"
   xmlns:sodipodi="http://sodipodi.sourceforge.net/DTD/sodipodi-0.dtd"
   xmlns:inkscape="http://www.inkscape.org/namespaces/inkscape"
   id="svg4"
   width="48"
   height="48"
   enable-background="new 0 0 24.00 24.00"
   version="1.1"
   viewBox="0 0 48 48"
   xml:space="preserve"
   sodipodi:docname="rotation.P.90CW.svg"
   inkscape:version="1.0.2 (e86c870879, 2021-01-15)"><defs
   id="defs10" /><sodipodi:namedview
   pagecolor="#ffffff"
   bordercolor="#666666"
   borderopacity="1"
   objecttolerance="10"
   gridtolerance="10"
   guidetolerance="10"
   inkscape:pageopacity="0"
   inkscape:pageshadow="2"
   inkscape:window-width="2560"
   inkscape:window-height="1381"
   id="namedview8"
   showgrid="true"
   inkscape:zoom="21"
   inkscape:cx="24"
   inkscape:cy="24"
   inkscape:window-x="0"
   inkscape:window-y="0"
   inkscape:window-maximized="1"
   inkscape:current-layer="svg4"
   inkscape:document-rotation="0"><inkscape:grid
     type="xygrid"
     id="grid833" /></sodipodi:namedview><metadata
   id="metadata10"><rdf:RDF><cc:Work
       rdf:about=""><dc:format>image/svg+xml</dc:format><dc:type
         rdf:resource="http://purl.org/dc/dcmitype/StillImage" /><dc:title></dc:title></cc:Work></rdf:RDF></metadata>
	
<g
   id="g847"
   transform="matrix(1.25,0,0,1.25,0.87500236,-5.5)"><rect
     id="rect1443"
     x="9"
     y="8"
     width="19"
     height="31"
     ry="2.5999999"
     fill="none"
     stroke="#000000"
     stroke-linejoin="round"
     stroke-width="2" /><path
     style="fill:#000000;fill-opacity:1;fill-rule:evenodd;stroke:#000000;stroke-width:2;stroke-linecap:butt;stroke-linejoin:round;stroke-miterlimit:4;stroke-dasharray:none;stroke-opacity:1"
     d="M 28,35 H 9 c 0,2 0.152585,4.046356 3,4 h 13 c 2,0 3,-1 3,-4 z"
     id="path842"
     sodipodi:nodetypes="ccccc" /></g><g
   aria-label="k"
   transform="rotate(-90,45.510382,-2.571684)"
   id="text956"
   style="font-style:normal;font-weight:normal;font-size:26.6667px;line-height:125%;font-family:sans-serif;letter-spacing:0px;word-spacing:0px;fill:#000000;fill-opacity:1;stroke:none;stroke-width:1px;stroke-linecap:butt;stroke-linejoin:miter;stroke-opacity:1"><path
     d="m 20.843039,-22.290085 c 2.06933,-0.255999 3.263995,-3.263995 4.13866,-4.543993 -0.234666,-0.064 -0.447999,-0.08533 -0.639999,-0.08533 -1.279998,0 -1.642664,0.639999 -1.770664,0.874665 -1.151998,2.154664 -1.983997,3.157329 -3.925327,3.157329 v -8.127987 c 0,-1.066665 -1.706664,-1.066665 -1.706664,-1.066665 v 15.061309 c 0,1.066665 1.706664,1.066665 1.706664,1.066665 v -5.546658 c 5.397325,0.426666 3.754661,5.546658 6.20799,5.546658 0.277333,0 0.895999,-0.149333 0.895999,-0.149333 -0.895999,-1.407998 -1.215998,-5.354658 -4.906659,-6.186657 z"
     style="font-style:normal;font-variant:normal;font-weight:normal;font-stretch:normal;font-size:21.3333px;font-family:Diavlo;-inkscape-font-specification:Diavlo"
     id="path958" /></g></svg>
