<?xml version="1.0" encoding="UTF-8" standalone="no"?>
<svg
   xmlns:dc="http://purl.org/dc/elements/1.1/"
   xmlns:cc="http://creativecommons.org/ns#"
   xmlns:rdf="http://www.w3.org/1999/02/22-rdf-syntax-ns#"
   xmlns:svg="http://www.w3.org/2000/svg"
   xmlns="http://www.w3.org/2000/svg"
   xmlns:sodipodi="http://sodipodi.sourceforge.net/DTD/sodipodi-0.dtd"
   xmlns:inkscape="http://www.inkscape.org/namespaces/inkscape"
   version="1.1"
   width="48"
   height="48"
   viewBox="0 0 48 48"
   enable-background="new 0 0 24.00 24.00"
   xml:space="preserve"
   id="svg4"
   sodipodi:docname="rotation.P.0UR.svg"
   inkscape:version="1.0.2 (e86c870879, 2021-01-15)"
   inkscape:export-xdpi="96"
   inkscape:export-ydpi="96"><path
   style="fill:none;fill-rule:evenodd;stroke:#000000;stroke-width:2;stroke-linecap:butt;stroke-linejoin:miter;stroke-miterlimit:4;stroke-dasharray:none;stroke-opacity:1"
   d="M 25.5,15 H 33"
   id="path842-7"
   sodipodi:nodetypes="cc" /><sodipodi:namedview
   pagecolor="#ffffff"
   bordercolor="#666666"
   borderopacity="1"
   objecttolerance="10"
   gridtolerance="10"
   guidetolerance="10"
   inkscape:pageopacity="0"
   inkscape:pageshadow="2"
   inkscape:window-width="2560"
   inkscape:window-height="1381"
   id="namedview7"
   showgrid="true"
   inkscape:zoom="21"
   inkscape:cx="24"
   inkscape:cy="14.857143"
   inkscape:window-x="0"
   inkscape:window-y="0"
   inkscape:window-maximized="1"
   inkscape:current-layer="svg4"
   inkscape:document-rotation="0"
   inkscape:snap-page="true"
   showguides="false"><inkscape:grid
     type="xygrid"
     id="grid893"
     empspacing="4"
     originx="0"
     originy="0" /></sodipodi:namedview><metadata
   id="metadata10"><rdf:RDF><cc:Work
       rdf:about=""><dc:format>image/svg+xml</dc:format><dc:type
         rdf:resource="http://purl.org/dc/dcmitype/StillImage" /><dc:title /></cc:Work></rdf:RDF></metadata><defs
   id="defs8" />

<rect
   style="fill:none;stroke:#000000;stroke-width:2;stroke-linejoin:round"
   id="rect1443"
   width="26"
   height="36"
   x="11"
   y="6"
   ry="3.0857143" /><path
   style="fill:none;stroke:#000000;stroke-width:2;stroke-linecap:butt;stroke-linejoin:miter;stroke-opacity:1"
   d="M 15,35 H 26.127273"
   id="path837" /><path
   style="fill:none;stroke:#000000;stroke-width:2;stroke-linecap:butt;stroke-linejoin:miter;stroke-opacity:1"
   d="M 15,31 H 32.999999"
   id="path839" /><path
   style="fill:none;stroke:#000000;stroke-width:2;stroke-linecap:butt;stroke-linejoin:miter;stroke-opacity:1"
   d="M 15,27 H 33"
   id="path841" /><g
   aria-label="A"
   id="text839"
   style="font-style:normal;font-variant:normal;font-weight:bold;font-stretch:normal;font-size:14.6667px;line-height:125%;font-family:Diavlo;-inkscape-font-specification:'Diavlo Bold';letter-spacing:0px;word-spacing:0px;fill:#000000;fill-opacity:1;stroke:none;stroke-width:1px;stroke-linecap:butt;stroke-linejoin:miter;stroke-opacity:1"><path
     d="M 20.001333,9.1759998 C 19.781333,9.3226664 18.138667,10.642666 17.156,13.664 l -1.246667,3.857333 c -0.352,1.1 -0.616,1.98 -0.909333,2.42 0,0 0.484,0.161334 0.821333,0.161334 1.378667,0 1.716,-1.188 2.082667,-2.288 l 0.249333,-0.777334 h 3.696 l 0.249334,0.777334 c 0.366666,1.1 0.704,2.288 2.082667,2.288 0.337333,0 0.821333,-0.161334 0.821333,-0.161334 -0.293333,-0.44 -0.557333,-1.32 -0.909333,-2.42 L 22.846667,13.664 C 21.864,10.642666 20.221333,9.3226664 20.001333,9.1759998 Z m 0,2.3906662 c 0,0 0.601334,1.246667 0.968,2.478667 L 21.424,15.570667 h -2.845333 l 0.454666,-1.525334 c 0.366667,-1.232 0.733334,-2.112 0.968,-2.478667 z"
     id="path918" /></g><path
   style="fill:none;fill-rule:evenodd;stroke:#000000;stroke-width:2;stroke-linecap:butt;stroke-linejoin:miter;stroke-miterlimit:4;stroke-dasharray:none;stroke-opacity:1"
   d="m 27,19 h 6"
   id="path842"
   sodipodi:nodetypes="cc" /><path
   style="fill:none;fill-rule:evenodd;stroke:#000000;stroke-width:2.00001;stroke-linecap:butt;stroke-linejoin:miter;stroke-miterlimit:4;stroke-dasharray:none;stroke-opacity:1"
   d="m 24,11 h 9"
   id="path842-4"
   sodipodi:nodetypes="cc" /></svg>
