<?xml version="1.0" encoding="UTF-8" standalone="no"?>
<svg
   xmlns:dc="http://purl.org/dc/elements/1.1/"
   xmlns:cc="http://creativecommons.org/ns#"
   xmlns:rdf="http://www.w3.org/1999/02/22-rdf-syntax-ns#"
   xmlns:svg="http://www.w3.org/2000/svg"
   xmlns="http://www.w3.org/2000/svg"
   xmlns:sodipodi="http://sodipodi.sourceforge.net/DTD/sodipodi-0.dtd"
   xmlns:inkscape="http://www.inkscape.org/namespaces/inkscape"
   id="svg4"
   width="48"
   height="48"
   enable-background="new 0 0 24.00 24.00"
   version="1.1"
   viewBox="0 0 48 48"
   xml:space="preserve"
   sodipodi:docname="appbar.rotation.0UR.svg"
   inkscape:version="1.0.2 (e86c870879, 2021-01-15)"><defs
   id="defs10" /><sodipodi:namedview
   pagecolor="#ffffff"
   bordercolor="#666666"
   borderopacity="1"
   objecttolerance="10"
   gridtolerance="10"
   guidetolerance="10"
   inkscape:pageopacity="0"
   inkscape:pageshadow="2"
   inkscape:window-width="2560"
   inkscape:window-height="1381"
   id="namedview8"
   showgrid="true"
   inkscape:zoom="21"
   inkscape:cx="24"
   inkscape:cy="24"
   inkscape:window-x="0"
   inkscape:window-y="0"
   inkscape:window-maximized="1"
   inkscape:current-layer="svg4"
   inkscape:document-rotation="0"><inkscape:grid
     type="xygrid"
     id="grid833" /></sodipodi:namedview><metadata
   id="metadata10"><rdf:RDF><cc:Work
       rdf:about=""><dc:format>image/svg+xml</dc:format><dc:type
         rdf:resource="http://purl.org/dc/dcmitype/StillImage" /><dc:title /></cc:Work></rdf:RDF></metadata>
	
<rect
   id="rect1443"
   x="9"
   y="9"
   width="19"
   height="30"
   ry="2.6"
   fill="none"
   stroke="#000"
   stroke-linejoin="round"
   stroke-width="2" /><rect
   id="rect1443-5"
   x="9"
   y="35"
   width="19"
   height="2"
   ry=".98"
   fill="none"
   stroke="#000"
   stroke-linejoin="round"
   stroke-width="2" /><path
   id="path1605"
   d="m37 18v14"
   fill="none"
   stroke="#000"
   stroke-width="2"
   style="stroke-width:1.6;stroke-miterlimit:4;stroke-dasharray:none" /><path
   id="path1607"
   d="m33 22 4-4.5 4 4.5"
   fill="none"
   stroke="#000"
   stroke-width="2"
   style="stroke-width:1.6;stroke-miterlimit:4;stroke-dasharray:none" /><g
   aria-label="k"
   id="text841"
   style="font-style:normal;font-variant:normal;font-weight:normal;font-stretch:normal;font-size:16px;line-height:125%;font-family:Diavlo;-inkscape-font-specification:Diavlo;letter-spacing:0px;word-spacing:0px;fill:#000000;fill-opacity:1;stroke:none;stroke-width:1px;stroke-linecap:butt;stroke-linejoin:miter;stroke-opacity:1"
   transform="translate(-12.8,-7.612)"><path
     d="m 30.948,30.36 c 1.552,-0.192 2.448,-2.448 3.104,-3.408 -0.176,-0.048 -0.336,-0.064 -0.48,-0.064 -0.96,0 -1.232,0.48 -1.328,0.656 -0.864,1.616 -1.488,2.368 -2.944,2.368 v -6.096 c 0,-0.8 -1.28,-0.8 -1.28,-0.8 v 11.296 c 0,0.8 1.28,0.8 1.28,0.8 v -4.16 c 4.048,0.32 2.816,4.16 4.656,4.16 0.208,0 0.672,-0.112 0.672,-0.112 -0.672,-1.056 -0.912,-4.016 -3.68,-4.64 z"
     id="path846" /></g></svg>
