<?xml version="1.0" encoding="UTF-8" standalone="no"?>
<svg
   xmlns:dc="http://purl.org/dc/elements/1.1/"
   xmlns:cc="http://creativecommons.org/ns#"
   xmlns:rdf="http://www.w3.org/1999/02/22-rdf-syntax-ns#"
   xmlns:svg="http://www.w3.org/2000/svg"
   xmlns="http://www.w3.org/2000/svg"
   xmlns:sodipodi="http://sodipodi.sourceforge.net/DTD/sodipodi-0.dtd"
   xmlns:inkscape="http://www.inkscape.org/namespaces/inkscape"
   id="svg4"
   width="48"
   height="48"
   enable-background="new 0 0 24.00 24.00"
   version="1.1"
   viewBox="0 0 48 48"
   xml:space="preserve"
   sodipodi:docname="rotation.90CCW.svg"
   inkscape:version="1.0.2 (e86c870879, 2021-01-15)"><defs
   id="defs14" /><sodipodi:namedview
   pagecolor="#ffffff"
   bordercolor="#666666"
   borderopacity="1"
   objecttolerance="10"
   gridtolerance="10"
   guidetolerance="10"
   inkscape:pageopacity="0"
   inkscape:pageshadow="2"
   inkscape:window-width="2560"
   inkscape:window-height="1381"
   id="namedview12"
   showgrid="true"
   inkscape:zoom="22.5"
   inkscape:cx="21.577778"
   inkscape:cy="24.057375"
   inkscape:window-x="0"
   inkscape:window-y="0"
   inkscape:window-maximized="1"
   inkscape:current-layer="g876"
   inkscape:document-rotation="0"><inkscape:grid
     type="xygrid"
     id="grid837" /></sodipodi:namedview><metadata
   id="metadata10"><rdf:RDF><cc:Work
       rdf:about=""><dc:format>image/svg+xml</dc:format><dc:type
         rdf:resource="http://purl.org/dc/dcmitype/StillImage" /><dc:title></dc:title></cc:Work></rdf:RDF></metadata>

<g
   id="g910"
   transform="matrix(-1,0,0,1,46.299999,2.9999387)"
   fill="none"
   stroke="#000000"
   stroke-width="1.6"><path
     id="path1207"
     d="m 26,5.1 c 6.4,0.33 9.3,2.1 11,6.6" /><path
     id="path1209"
     d="m 33,11 4.8,1 1,-4.8" /></g><g
   id="g906"
   transform="matrix(-1,0,0,1,46.799999,1.5)"
   fill="none"
   stroke="#000000"
   stroke-linejoin="round"
   stroke-width="2"><path
     id="rect1037"
     d="M 2.8,6.5 2.799999,5 c -9e-7,-1.4 1.1,-2.5 2.5,-2.5 h 1.3 M 9.4,2.5 h 5.799999 M 18,2.5 h 1.3 c 1.4,0 2.5,1.1 2.5,2.5 v 1.5 m 0,2.75 v 4 m -19.000001,0 v -4"
     sodipodi:nodetypes="cssccccssccccc"
     style="stroke-width:2;stroke-miterlimit:4;stroke-dasharray:none" /><path
     id="rect1037-6"
     d="M 15.2,33.5 H 9.5 m -2.9,0 H 5.3 C 3.9,33.5 2.8,32.4 2.8,31 v -1.5 m 0,-2.75 v -4"
     style="stroke-width:2;stroke-miterlimit:4;stroke-dasharray:none"
     sodipodi:nodetypes="cccssccc" /></g><g
   aria-label="k"
   id="text841"
   style="font-style:normal;font-variant:normal;font-weight:normal;font-stretch:normal;font-size:16px;line-height:125%;font-family:Diavlo;-inkscape-font-specification:Diavlo;letter-spacing:0px;word-spacing:0px;fill:#000000;fill-opacity:1;stroke:none;stroke-width:1px;stroke-linecap:butt;stroke-linejoin:miter;stroke-opacity:1"
   transform="rotate(90,31.339,30.209)" /><path
   style="fill:none;fill-rule:evenodd;stroke:#000000;stroke-width:2;stroke-linecap:butt;stroke-linejoin:round;stroke-miterlimit:4;stroke-dasharray:none;stroke-opacity:1"
   d="m 43.999999,17.5 v 4"
   id="path901"
   sodipodi:nodetypes="cc" /><path
   style="fill:none;fill-rule:evenodd;stroke:#000000;stroke-width:2;stroke-linecap:butt;stroke-linejoin:round;stroke-miterlimit:4;stroke-dasharray:none;stroke-opacity:1"
   d="m 24.999999,17.5 v 2.7"
   id="path903"
   sodipodi:nodetypes="cc" /><g
   id="g876"><rect
     id="rect1443"
     transform="matrix(0,1,1,0,0,0)"
     x="20"
     y="3.999999"
     width="19"
     height="30.999996"
     ry="2.5999999"
     fill="none"
     stroke="#000000"
     stroke-linejoin="round"
     stroke-width="2" /><path
     style="fill:#000000;fill-opacity:1;fill-rule:evenodd;stroke:#000000;stroke-width:2;stroke-linecap:butt;stroke-linejoin:round;stroke-miterlimit:4;stroke-dasharray:none;stroke-opacity:1"
     d="M 30.999999,39 V 20 c 2,0 4.046356,0.152585 4,3 v 13 c 0,2 -1,3 -4,3 z"
     id="path842"
     sodipodi:nodetypes="ccccc" /></g></svg>
