<?xml version="1.0" encoding="UTF-8"?>
<svg version="1.1" width="48" height="48" viewBox="0 0 48 48" xmlns="http://www.w3.org/2000/svg">
  <path d="M13.3 13.3v8l-2.9-2.9A14.7 14.7 0 0 0 32.5 35.9a1.3 1.3 0 1 1 1.5 2.2A17.3 17.3 0 0 1 8.5 16.6L5.3 13.3h8zm10.7-6.6a17.3 17.3 0 0 1 15.6 24.8l2.7 2.7h-8v-8l2.9 2.9A14.7 14.7 0 0 0 15.3 11.9a1.3 1.3 0 1 1-1.5-2.2A17.2 17.2 0 0 1 24 6.7zM24 18.7a5.3 5.3 0 1 1 0 10.7 5.3 5.3 0 0 1 0-10.7zm0 2.6a2.7 2.7 0 1 0 0 5.4 2.7 2.7 0 0 0 0-5.4z" fill="#000000" opacity=".6"/>
</svg>
