<?xml version="1.0" encoding="UTF-8" standalone="no"?>
<svg
   xmlns:dc="http://purl.org/dc/elements/1.1/"
   xmlns:cc="http://creativecommons.org/ns#"
   xmlns:rdf="http://www.w3.org/1999/02/22-rdf-syntax-ns#"
   xmlns:svg="http://www.w3.org/2000/svg"
   xmlns="http://www.w3.org/2000/svg"
   xmlns:sodipodi="http://sodipodi.sourceforge.net/DTD/sodipodi-0.dtd"
   xmlns:inkscape="http://www.inkscape.org/namespaces/inkscape"
   id="svg4"
   width="48"
   height="48"
   enable-background="new 0 0 24.00 24.00"
   version="1.1"
   viewBox="0 0 48 48"
   xml:space="preserve"
   sodipodi:docname="rotation.P.90CW.svg"
   inkscape:version="1.0.2 (e86c870879, 2021-01-15)"><defs
   id="defs10"><clipPath
     clipPathUnits="userSpaceOnUse"
     id="clipPath930"><path
       id="path932"
       style="fill:#00a89c;fill-opacity:1;fill-rule:nonzero;stroke:none;stroke-width:0.999997"
       d="m 40.842465,0.60156187 c -12.386709,0 -22.524098,10.13605613 -22.524098,22.52277513 V 171.87568 c 0,12.38673 10.137389,22.52278 22.524098,22.52278 h 5.227715 99.08736 5.22771 c 12.38672,0 22.5241,-10.13605 22.5241,-22.52278 V 23.124337 c 0,-12.386719 -10.13738,-22.52277513 -22.5241,-22.52277513 h -5.22771 -99.08736 z" /></clipPath></defs><sodipodi:namedview
   pagecolor="#ffffff"
   bordercolor="#666666"
   borderopacity="1"
   objecttolerance="10"
   gridtolerance="10"
   guidetolerance="10"
   inkscape:pageopacity="0"
   inkscape:pageshadow="2"
   inkscape:window-width="2560"
   inkscape:window-height="1381"
   id="namedview8"
   showgrid="true"
   inkscape:zoom="21"
   inkscape:cx="24"
   inkscape:cy="25.904762"
   inkscape:window-x="0"
   inkscape:window-y="0"
   inkscape:window-maximized="1"
   inkscape:current-layer="svg4"
   inkscape:document-rotation="0"><inkscape:grid
     type="xygrid"
     id="grid833" /></sodipodi:namedview><metadata
   id="metadata10"><rdf:RDF><cc:Work
       rdf:about=""><dc:format>image/svg+xml</dc:format><dc:type
         rdf:resource="http://purl.org/dc/dcmitype/StillImage" /><dc:title></dc:title></cc:Work></rdf:RDF></metadata>
	
<g
   id="g847"
   transform="matrix(1.35,0,0,1.35,-0.97499754,-7.7)"><rect
     id="rect1443"
     x="9"
     y="8"
     width="19"
     height="31"
     ry="2.5999999"
     fill="none"
     stroke="#000000"
     stroke-linejoin="round"
     stroke-width="2" /><path
     style="fill:#000000;fill-opacity:1;fill-rule:evenodd;stroke:#000000;stroke-width:2;stroke-linecap:butt;stroke-linejoin:round;stroke-miterlimit:4;stroke-dasharray:none;stroke-opacity:1"
     d="M 28,35 H 9 c 0,2 0.152585,4.046356 3,4 h 13 c 2,0 3,-1 3,-4 z"
     id="path842"
     sodipodi:nodetypes="ccccc" /></g><g
   id="g873"
   transform="matrix(0,-0.75,0.75,0,3.7249907,20.334375)"><path
     id="path96"
     d="M 6.4632377,40.06668 H -7.5049092 c -1.6586018,0 -3.0159258,-1.359955 -3.0159258,-3.021771 V 17.088447 c 0,-1.661816 1.357324,-3.021769 3.0159258,-3.021769 H 6.4632377 c 1.658604,0 3.015928,1.359953 3.015928,3.021769 v 19.956462 c 0,1.661816 -1.357324,3.021771 -3.015928,3.021771"
     style="fill:#00a89c;fill-opacity:1;fill-rule:nonzero;stroke:none;stroke-width:0.133333" /><path
     id="path98"
     d="M 5.7632377,40.066679 H -8.2049092 c -1.6586017,0 -3.0159258,-1.359954 -3.0159258,-3.02177 V 17.088447 c 0,-1.661816 1.3573241,-3.021769 3.0159258,-3.021769 H 5.7632377 c 1.658602,0 3.015928,1.359953 3.015928,3.021769 v 19.956462 c 0,1.661816 -1.357326,3.02177 -3.015928,3.02177"
     style="fill:#ffffff;fill-opacity:1;fill-rule:nonzero;stroke:none;stroke-width:0.133333" /><path
     id="path100"
     d="M 5.0632377,40.06668 H -8.9049091 c -1.6586019,0 -3.0159259,-1.359955 -3.0159259,-3.021771 V 17.088447 c 0,-1.661816 1.357324,-3.021769 3.0159259,-3.021769 H 5.0632377 c 1.658604,0 3.015928,1.359953 3.015928,3.021769 v 19.956462 c 0,1.661816 -1.357324,3.021771 -3.015928,3.021771"
     style="fill:#00a89c;fill-opacity:1;fill-rule:nonzero;stroke:none;stroke-width:0.133333" /><g
     id="g914"
     clip-path="url(#clipPath930)"
     transform="matrix(0.13390173,0,0,0.13416108,-14.373696,13.985972)"
     style="stroke-width:0.994792"><path
       id="path102"
       d="m 37.95508,118.15625 13.34375,-11.14453 13.34375,11.14453 V -14.347657 h -26.6875 z m 0,0"
       style="clip-rule:nonzero;fill:#ffffff;fill-opacity:1;fill-rule:nonzero;stroke:none;stroke-width:0.994792" /><path
       id="path108"
       d="m 98.11914,138.55078 c -21.97266,0 -39.84766,17.875 -39.84766,39.84766 0,21.97265 17.875,39.84765 39.84766,39.84765 21.97265,0 39.84765,-17.875 39.84765,-39.84765 0,-21.97266 -17.875,-39.84766 -39.84765,-39.84766 m 0,103.69531 c -35.20703,0 -63.84766,-28.64062 -63.84766,-63.84765 0,-35.20704 28.64063,-63.84766 63.84766,-63.84766 35.20703,0 63.84765,28.64062 63.84765,63.84766 0,35.20703 -28.64062,63.84765 -63.84765,63.84765"
       style="clip-rule:nonzero;fill:#ffffff;fill-opacity:1;fill-rule:nonzero;stroke:none;stroke-width:0.994792" /><path
       id="path114"
       d="m 165.57617,118.15625 c -9.38281,0.0195 -19.17188,-0.0391 -22.34766,0 -18.47265,0.25 -18.88672,-3.35156 -24.83203,-8.09766 -9.07812,-7.24219 -29.79297,-27.835939 -39.94922,-37.246089 -3.46093,-3.21094 -5.42187,-6.94141 -5.42187,-10.43359 v -2.84375 c 0,-4.64454 1.75,-9.125005 4.89844,-12.542974 l 56.73046,-61.515625 h 34.74219 L 99.87695,59.734371 c 5.93359,6.98047 25.90625,26.39844 51.76953,48.457029 5.42578,4.62891 9.59766,8.125 13.92969,9.96485"
       style="clip-rule:nonzero;fill:#ffffff;fill-opacity:1;fill-rule:nonzero;stroke:none;stroke-width:0.994792" /></g></g></svg>
