<?xml version="1.0" encoding="UTF-8" standalone="no"?>
<svg
   xmlns:dc="http://purl.org/dc/elements/1.1/"
   xmlns:cc="http://creativecommons.org/ns#"
   xmlns:rdf="http://www.w3.org/1999/02/22-rdf-syntax-ns#"
   xmlns:svg="http://www.w3.org/2000/svg"
   xmlns="http://www.w3.org/2000/svg"
   xmlns:sodipodi="http://sodipodi.sourceforge.net/DTD/sodipodi-0.dtd"
   xmlns:inkscape="http://www.inkscape.org/namespaces/inkscape"
   id="svg4"
   width="48"
   height="48"
   enable-background="new 0 0 24.00 24.00"
   version="1.1"
   viewBox="0 0 48 48"
   xml:space="preserve"
   sodipodi:docname="rotation.P.0UR.svg"
   inkscape:version="1.0.2 (e86c870879, 2021-01-15)"><g
   aria-label="k"
   id="text837"
   style="font-style:normal;font-variant:normal;font-weight:normal;font-stretch:normal;font-size:26.6667px;line-height:125%;font-family:Diavlo;-inkscape-font-specification:Diavlo;letter-spacing:0px;word-spacing:0px;fill:#000000;fill-opacity:1;stroke:none;stroke-width:1px;stroke-linecap:butt;stroke-linejoin:miter;stroke-opacity:1"><path
     d="m 23.880006,23.240015 c 2.58667,-0.32 4.080006,-4.080005 5.17334,-5.680007 -0.293333,-0.08 -0.56,-0.106667 -0.800001,-0.106667 -1.600002,0 -2.053336,0.800001 -2.213336,1.093335 -1.440002,2.693337 -2.480003,3.946671 -4.906673,3.946671 V 12.333335 C 21.133336,11 19,11 19,11 v 18.82669 c 0,1.333335 2.133336,1.333335 2.133336,1.333335 v -6.933342 c 6.746676,0.533334 4.69334,6.933342 7.76001,6.933342 0.346667,0 1.120002,-0.186667 1.120002,-0.186667 -1.120002,-1.760002 -1.520002,-6.693342 -6.133342,-7.733343 z"
     id="path839" /></g><defs
   id="defs10" /><sodipodi:namedview
   pagecolor="#ffffff"
   bordercolor="#666666"
   borderopacity="1"
   objecttolerance="10"
   gridtolerance="10"
   guidetolerance="10"
   inkscape:pageopacity="0"
   inkscape:pageshadow="2"
   inkscape:window-width="2560"
   inkscape:window-height="1381"
   id="namedview8"
   showgrid="true"
   inkscape:zoom="21"
   inkscape:cx="24"
   inkscape:cy="24"
   inkscape:window-x="0"
   inkscape:window-y="0"
   inkscape:window-maximized="1"
   inkscape:current-layer="svg4"
   inkscape:document-rotation="0"><inkscape:grid
     type="xygrid"
     id="grid833" /></sodipodi:namedview><metadata
   id="metadata10"><rdf:RDF><cc:Work
       rdf:about=""><dc:format>image/svg+xml</dc:format><dc:type
         rdf:resource="http://purl.org/dc/dcmitype/StillImage" /><dc:title></dc:title></cc:Work></rdf:RDF></metadata>
	
<g
   id="g847"
   transform="matrix(1.25,0,0,1.25,0.87500236,-5.5)"><rect
     id="rect1443"
     x="9"
     y="8"
     width="19"
     height="31"
     ry="2.5999999"
     fill="none"
     stroke="#000000"
     stroke-linejoin="round"
     stroke-width="2" /><path
     style="fill:#000000;fill-opacity:1;fill-rule:evenodd;stroke:#000000;stroke-width:2;stroke-linecap:butt;stroke-linejoin:round;stroke-miterlimit:4;stroke-dasharray:none;stroke-opacity:1"
     d="M 28,35 H 9 c 0,2 0.152585,4.046356 3,4 h 13 c 2,0 3,-1 3,-4 z"
     id="path842"
     sodipodi:nodetypes="ccccc" /></g></svg>
