<svg version="1.1" viewBox="0 0 16 16" xmlns="http://www.w3.org/2000/svg" xmlns:osb="http://www.openswatchbook.org/uri/2009/osb">
 <g transform="translate(-472 -160)">
  <path d="m475.99 162c-1.2582 0.0145-2.1789-0.0306-2.9316 0.38477-0.37637 0.20766-0.67323 0.55938-0.83789 0.99804-0.16467 0.43867-0.22461 0.95958-0.22461 1.6172v7c0 0.65761 0.0599 1.1785 0.22461 1.6172 0.16467 0.43866 0.46152 0.79039 0.83789 0.99804 0.75275 0.41532 1.6734 0.3702 2.9316 0.38477h4e-3 8.0039 4e-3c1.2582-0.0145 2.1789 0.0306 2.9316-0.38477 0.37637-0.20766 0.67322-0.55938 0.83789-0.99804 0.16413-0.43867 0.22443-0.95958 0.22443-1.6172v-7c0-0.65761-0.0599-1.1785-0.22461-1.6172-0.16466-0.43866-0.46152-0.79038-0.83789-0.99804-0.75275-0.41534-1.6734-0.37025-2.9316-0.38477h-4e-3 -8.0039zm2.9023 1.0918c1.749-4e-3 3.4973-1e-3 5.2461 0.0215 0.86117 0.14671 2.161-0.34154 2.6738 0.66797 0.25574 2.924 0.0694 5.882 0.1289 8.8184-0.0871 0.38019-0.18482 1.1436-0.73047 1.1289-3.5364 0.23538-7.0915 0.10846-10.635 0.13476-0.78646-0.11198-1.9999 0.2903-2.4043-0.6914-0.1705-2.4656-0.0888-4.9496-0.0898-7.4356 0.12175-0.84105-0.29598-2.0645 0.6875-2.5117 1.6892-0.21162 3.4084-0.0775 5.123-0.13281zm-3.4141 1.8867c-0.47384 0.0193-0.65721 0.62569-0.27344 0.90429l1.4668 1.0996-1.4668 1.0996c-0.53385 0.40104 0.0677 1.2018 0.60157 0.80078l2-1.5c0.26732-0.2 0.26732-0.60078 0-0.80078l-2-1.5c-0.0937-0.0722-0.20995-0.10851-0.32813-0.10351zm2.5274 4.0039v1h3v-1z" color="#000000" color-rendering="auto" dominant-baseline="auto" fill="#808080" image-rendering="auto" shape-rendering="auto" solid-color="#000000" style="font-feature-settings:normal;font-variant-alternates:normal;font-variant-caps:normal;font-variant-ligatures:normal;font-variant-numeric:normal;font-variant-position:normal;isolation:auto;mix-blend-mode:normal;shape-padding:0;text-decoration-color:#000000;text-decoration-line:none;text-decoration-style:solid;text-indent:0;text-orientation:mixed;text-transform:none;white-space:normal"/>
 </g>
</svg>
