<?xml version="1.0" encoding="UTF-8" standalone="no"?>
<svg
   xmlns:dc="http://purl.org/dc/elements/1.1/"
   xmlns:cc="http://creativecommons.org/ns#"
   xmlns:rdf="http://www.w3.org/1999/02/22-rdf-syntax-ns#"
   xmlns:svg="http://www.w3.org/2000/svg"
   xmlns="http://www.w3.org/2000/svg"
   width="260"
   height="260"
   viewBox="0 0 195 195.00002"
   version="1.2"
   id="svg215">
  <metadata
     id="metadata219">
    <rdf:RDF>
      <cc:Work
         rdf:about="">
        <dc:format>image/svg+xml</dc:format>
        <dc:type
           rdf:resource="http://purl.org/dc/dcmitype/StillImage" />
        <dc:title></dc:title>
      </cc:Work>
    </rdf:RDF>
  </metadata>
  <defs
     id="defs94">
    <clipPath
       clipPathUnits="userSpaceOnUse"
       id="clipPath930">
      <path
         id="path932"
         style="fill:#00a89c;fill-opacity:1;fill-rule:nonzero;stroke:none;stroke-width:0.999997"
         d="m 40.842465,0.60156187 c -12.386709,0 -22.524098,10.13605613 -22.524098,22.52277513 V 171.87568 c 0,12.38673 10.137389,22.52278 22.524098,22.52278 h 5.227715 99.08736 5.22771 c 12.38672,0 22.5241,-10.13605 22.5241,-22.52278 V 23.124337 c 0,-12.386719 -10.13738,-22.52277513 -22.5241,-22.52277513 h -5.22771 -99.08736 z" />
    </clipPath>
  </defs>
  <path
     id="path96"
     d="M 155.88055,195.00002 H 51.119448 c -12.439515,0 -22.619447,-10.19966 -22.619447,-22.66328 V 22.663266 C 28.500001,10.199649 38.679933,0 51.119448,0 H 155.88055 c 12.43953,0 22.61946,10.199649 22.61946,22.663266 V 172.33674 c 0,12.46362 -10.17993,22.66328 -22.61946,22.66328"
     style="fill:#00a89c;fill-opacity:1;fill-rule:nonzero;stroke:none;stroke-width:1" />
  <path
     id="path98"
     d="M 150.63055,195.00001 H 45.869448 c -12.439514,0 -22.619447,-10.19965 -22.619447,-22.66327 V 22.663266 C 23.250001,10.199649 33.429934,0 45.869448,0 H 150.63055 c 12.43952,0 22.61946,10.199649 22.61946,22.663266 V 172.33674 c 0,12.46362 -10.17994,22.66327 -22.61946,22.66327"
     style="fill:#ffffff;fill-opacity:1;fill-rule:nonzero;stroke:none;stroke-width:1" />
  <path
     id="path100"
     d="M 145.38055,195.00002 H 40.619448 c -12.439514,0 -22.619447,-10.19966 -22.619447,-22.66328 V 22.663266 C 18.000001,10.199649 28.179934,0 40.619448,0 H 145.38055 c 12.43953,0 22.61946,10.199649 22.61946,22.663266 V 172.33674 c 0,12.46362 -10.17993,22.66328 -22.61946,22.66328"
     style="fill:#00a89c;fill-opacity:1;fill-rule:nonzero;stroke:none;stroke-width:1" />
  <g
     id="g914"
     clip-path="url(#clipPath930)"
     transform="matrix(1.004263,0,0,1.0062081,-0.39645745,-0.60529643)"
     style="stroke-width:0.994792">
    <path
       id="path102"
       d="m 37.95508,118.15625 13.34375,-11.14453 13.34375,11.14453 V -14.347657 h -26.6875 z m 0,0"
       style="clip-rule:nonzero;fill:#ffffff;fill-opacity:1;fill-rule:nonzero;stroke:none;stroke-width:0.994792" />
    <path
       id="path108"
       d="m 98.11914,138.55078 c -21.97266,0 -39.84766,17.875 -39.84766,39.84766 0,21.97265 17.875,39.84765 39.84766,39.84765 21.97265,0 39.84765,-17.875 39.84765,-39.84765 0,-21.97266 -17.875,-39.84766 -39.84765,-39.84766 m 0,103.69531 c -35.20703,0 -63.84766,-28.64062 -63.84766,-63.84765 0,-35.20704 28.64063,-63.84766 63.84766,-63.84766 35.20703,0 63.84765,28.64062 63.84765,63.84766 0,35.20703 -28.64062,63.84765 -63.84765,63.84765"
       style="clip-rule:nonzero;fill:#ffffff;fill-opacity:1;fill-rule:nonzero;stroke:none;stroke-width:0.994792" />
    <path
       id="path114"
       d="m 165.57617,118.15625 c -9.38281,0.0195 -19.17188,-0.0391 -22.34766,0 -18.47265,0.25 -18.88672,-3.35156 -24.83203,-8.09766 -9.07812,-7.24219 -29.79297,-27.835939 -39.94922,-37.246089 -3.46093,-3.21094 -5.42187,-6.94141 -5.42187,-10.43359 v -2.84375 c 0,-4.64454 1.75,-9.125005 4.89844,-12.542974 l 56.73046,-61.515625 h 34.74219 L 99.87695,59.734371 c 5.93359,6.98047 25.90625,26.39844 51.76953,48.457029 5.42578,4.62891 9.59766,8.125 13.92969,9.96485"
       style="clip-rule:nonzero;fill:#ffffff;fill-opacity:1;fill-rule:nonzero;stroke:none;stroke-width:0.994792" />
  </g>
</svg>
