<?xml version="1.0" encoding="UTF-8" standalone="no"?>
<svg
   width="45"
   height="45"
   version="1.1"
   id="svg477"
   sodipodi:docname="bQ.svg"
   inkscape:version="1.2.2 (b0a8486541, 2022-12-01)"
   xmlns:inkscape="http://www.inkscape.org/namespaces/inkscape"
   xmlns:sodipodi="http://sodipodi.sourceforge.net/DTD/sodipodi-0.dtd"
   xmlns="http://www.w3.org/2000/svg"
   xmlns:svg="http://www.w3.org/2000/svg">
  <defs
     id="defs481" />
  <sodipodi:namedview
     id="namedview479"
     pagecolor="#ffffff"
     bordercolor="#666666"
     borderopacity="1.0"
     inkscape:showpageshadow="2"
     inkscape:pageopacity="0.0"
     inkscape:pagecheckerboard="0"
     inkscape:deskcolor="#d1d1d1"
     showgrid="false"
     inkscape:zoom="5.2444444"
     inkscape:cx="22.5"
     inkscape:cy="22.5"
     inkscape:window-width="1920"
     inkscape:window-height="1131"
     inkscape:window-x="0"
     inkscape:window-y="0"
     inkscape:window-maximized="1"
     inkscape:current-layer="svg477" />
  <circle
     cx="6"
     cy="12"
     r="2.75"
     id="circle455"
     style="fill-rule:evenodd;stroke:none;stroke-width:1.5;stroke-linecap:round;stroke-linejoin:round" />
  <circle
     cx="14"
     cy="9"
     r="2.75"
     id="circle457"
     style="fill-rule:evenodd;stroke:none;stroke-width:1.5;stroke-linecap:round;stroke-linejoin:round" />
  <circle
     cx="22.5"
     cy="8"
     r="2.75"
     id="circle459"
     style="fill-rule:evenodd;stroke:none;stroke-width:1.5;stroke-linecap:round;stroke-linejoin:round" />
  <circle
     cx="31"
     cy="9"
     r="2.75"
     id="circle461"
     style="fill-rule:evenodd;stroke:none;stroke-width:1.5;stroke-linecap:round;stroke-linejoin:round" />
  <circle
     cx="39"
     cy="12"
     r="2.75"
     id="circle463"
     style="fill-rule:evenodd;stroke:none;stroke-width:1.5;stroke-linecap:round;stroke-linejoin:round" />
  <path
     d="m 9,26 c 8.5,-1.5 21,-1.5 27,0 L 38.5,13.5 31,25 30.7,10.9 25.5,24.5 22.5,10 19.5,24.5 14.3,10.9 14,25 6.5,13.5 Z"
     stroke-linecap="butt"
     id="path467"
     style="fill-rule:evenodd;stroke:#000000;stroke-width:1.5;stroke-linejoin:round" />
  <path
     d="m 9,26 c 0,2 1.5,2 2.5,4 1,1.5 1,1 0.5,3.5 -1.5,1 -1.5,2.5 -1.5,2.5 -1.5,1.5 0.5,2.5 0.5,2.5 6.5,1 16.5,1 23,0 0,0 1.5,-1 0,-2.5 0,0 0.5,-1.5 -1,-2.5 -0.5,-2.5 -0.5,-2 0.5,-3.5 1,-2 2.5,-2 2.5,-4 -8.5,-1.5 -18.5,-1.5 -27,0 z"
     stroke-linecap="butt"
     id="path469"
     style="fill-rule:evenodd;stroke:#000000;stroke-width:1.5;stroke-linejoin:round" />
  <path
     d="m 11,38.5 a 35,35 0 0 0 23,0"
     fill="none"
     stroke-linecap="butt"
     id="path471"
     style="fill-rule:evenodd;stroke:#000000;stroke-width:1.5;stroke-linejoin:round" />
  <path
     d="m 11,29 a 35,35 0 0 1 23,0 m -21.5,2.5 h 20 m -21,3 a 35,35 0 0 0 22,0 m -23,3 a 35,35 0 0 0 24,0"
     fill="none"
     stroke="#ececec"
     id="path473"
     style="fill-rule:evenodd;stroke-width:1.5;stroke-linecap:round;stroke-linejoin:round" />
</svg>
