<?xml version="1.0" encoding="UTF-8" standalone="no"?>
<svg
   xmlns:dc="http://purl.org/dc/elements/1.1/"
   xmlns:cc="http://creativecommons.org/ns#"
   xmlns:rdf="http://www.w3.org/1999/02/22-rdf-syntax-ns#"
   xmlns:svg="http://www.w3.org/2000/svg"
   xmlns="http://www.w3.org/2000/svg"
   xmlns:sodipodi="http://sodipodi.sourceforge.net/DTD/sodipodi-0.dtd"
   xmlns:inkscape="http://www.inkscape.org/namespaces/inkscape"
   version="1.1"
   width="64"
   height="64"
   viewBox="0 0 64 64"
   enable-background="new 0 0 76.00 76.00"
   xml:space="preserve"
   id="svg2"
   inkscape:version="0.48.4 r9939"
   sodipodi:docname="appbar.cabinet.files.svg"><metadata
     id="metadata10"><rdf:RDF><cc:Work
         rdf:about=""><dc:format>image/svg+xml</dc:format><dc:type
           rdf:resource="http://purl.org/dc/dcmitype/StillImage" /></cc:Work></rdf:RDF></metadata><defs
     id="defs8" /><sodipodi:namedview
     pagecolor="#ffffff"
     bordercolor="#666666"
     borderopacity="1"
     objecttolerance="10"
     gridtolerance="10"
     guidetolerance="10"
     inkscape:pageopacity="0"
     inkscape:pageshadow="2"
     inkscape:window-width="1280"
     inkscape:window-height="738"
     id="namedview6"
     showgrid="false"
     inkscape:zoom="3.1052632"
     inkscape:cx="38"
     inkscape:cy="38"
     inkscape:window-x="0"
     inkscape:window-y="27"
     inkscape:window-maximized="1"
     inkscape:current-layer="svg2" /><path
     d="m 7.571429,32 0,-21.052632 6.428571,0 0,-2.6315785 6.428571,0 L 20.428571,7 43.25,7 56.428571,20.486842 56.428571,32 59,32 59,57 58.464243,57 5.535757,57 5,57 5,32 7.571429,32 z M 14,32 l 0,-17.105263 -2.571429,0 0,17.105263 L 14,32 z m 3.857143,-19.736842 0,19.736842 2.571428,0 0,-19.736842 -2.571428,0 z m 20.571428,30.263158 0,3.947368 -12.857142,0 0,-3.947368 12.857142,0 z M 52.571429,32 l 0,-6.578947 -14.142858,0 0,-14.473685 -14.142857,0 0,21.052632 28.285715,0 z m -10.285715,-20.065789 0,9.539473 9.321429,0 -9.321429,-9.539473 z m -32.142857,25.328947 0,14.473684 43.714286,0 0,-14.473684 -43.714286,0 z"
     id="path4"
     inkscape:connector-curvature="0"
     style="fill:#000000;fill-opacity:1;stroke-width:0.2;stroke-linejoin:round" /></svg>