<?xml version="1.0" encoding="UTF-8" standalone="no"?>
<svg
   xmlns:ooo="http://xml.openoffice.org/svg/export"
   xmlns:dc="http://purl.org/dc/elements/1.1/"
   xmlns:cc="http://creativecommons.org/ns#"
   xmlns:rdf="http://www.w3.org/1999/02/22-rdf-syntax-ns#"
   xmlns:svg="http://www.w3.org/2000/svg"
   xmlns="http://www.w3.org/2000/svg"
   xmlns:sodipodi="http://sodipodi.sourceforge.net/DTD/sodipodi-0.dtd"
   xmlns:inkscape="http://www.inkscape.org/namespaces/inkscape"
   version="1.2"
   width="48"
   height="48"
   viewBox="0 0 1270 1270"
   preserveAspectRatio="xMidYMid"
   fill-rule="evenodd"
   stroke-width="28.222"
   stroke-linejoin="round"
   xml:space="preserve"
   id="svg1132"
   sodipodi:docname="zoom.manual.svg"
   inkscape:version="1.0.1 (3bc2e813f5, 2020-09-07)"
   inkscape:export-filename="/tmp/icon.png"
   inkscape:export-xdpi="96"
   inkscape:export-ydpi="96"><metadata
   id="metadata1136"><rdf:RDF><cc:Work
       rdf:about=""><dc:format>image/svg+xml</dc:format><dc:type
         rdf:resource="http://purl.org/dc/dcmitype/StillImage" /><dc:title></dc:title></cc:Work></rdf:RDF></metadata><sodipodi:namedview
   pagecolor="#ffffff"
   bordercolor="#666666"
   borderopacity="1"
   objecttolerance="10"
   gridtolerance="10"
   guidetolerance="10"
   inkscape:pageopacity="1"
   inkscape:pageshadow="2"
   inkscape:window-width="1366"
   inkscape:window-height="718"
   id="namedview1134"
   showgrid="false"
   inkscape:zoom="11.73"
   inkscape:cx="22.789244"
   inkscape:cy="24.486379"
   inkscape:window-x="0"
   inkscape:window-y="0"
   inkscape:window-maximized="1"
   inkscape:current-layer="svg1132"
   units="px" />
 <defs
   class="ClipPathGroup"
   id="defs1067">
  <clipPath
   id="presentation_clip_path"
   clipPathUnits="userSpaceOnUse">
   <rect
   x="0"
   y="0"
   width="1296"
   height="1296"
   id="rect1061" />
  </clipPath>
  <clipPath
   id="presentation_clip_path_shrink"
   clipPathUnits="userSpaceOnUse">
   <rect
   x="1"
   y="1"
   width="1294"
   height="1294"
   id="rect1064" />
  </clipPath>
 
  
 </defs>
 <defs
   class="TextShapeIndex"
   id="defs1071">
  <g
   ooo:slide="id1"
   ooo:id-list="id3 id4"
   id="g1069" />
 </defs>
 <defs
   class="EmbeddedBulletChars"
   id="defs1103">
  <g
   id="bullet-char-template-57356"
   transform="matrix(4.8828125e-4,0,0,-4.8828125e-4,0,0)">
   <path
   d="M 580,1141 1163,571 580,0 -4,571 Z"
   id="path1073" />
  </g>
  <g
   id="bullet-char-template-57354"
   transform="matrix(4.8828125e-4,0,0,-4.8828125e-4,0,0)">
   <path
   d="M 8,1128 H 1137 V 0 H 8 Z"
   id="path1076" />
  </g>
  <g
   id="bullet-char-template-10146"
   transform="matrix(4.8828125e-4,0,0,-4.8828125e-4,0,0)">
   <path
   d="M 174,0 602,739 174,1481 1456,739 Z M 1358,739 309,1346 659,739 Z"
   id="path1079" />
  </g>
  <g
   id="bullet-char-template-10132"
   transform="matrix(4.8828125e-4,0,0,-4.8828125e-4,0,0)">
   <path
   d="M 2015,739 1276,0 H 717 l 543,543 H 174 v 393 h 1086 l -543,545 h 557 z"
   id="path1082" />
  </g>
  <g
   id="bullet-char-template-10007"
   transform="matrix(4.8828125e-4,0,0,-4.8828125e-4,0,0)">
   <path
   d="m 0,-2 c -7,16 -16,29 -25,39 l 381,530 c -94,256 -141,385 -141,387 0,25 13,38 40,38 9,0 21,-2 34,-5 21,4 42,12 65,25 l 27,-13 111,-251 280,301 64,-25 24,25 c 21,-10 41,-24 62,-43 C 886,937 835,863 770,784 769,783 710,716 594,584 L 774,223 c 0,-27 -21,-55 -63,-84 l 16,-20 C 717,90 699,76 672,76 641,76 570,178 457,381 L 164,-76 c -22,-34 -53,-51 -92,-51 -42,0 -63,17 -64,51 -7,9 -10,24 -10,44 0,9 1,19 2,30 z"
   id="path1085" />
  </g>
  <g
   id="bullet-char-template-10004"
   transform="matrix(4.8828125e-4,0,0,-4.8828125e-4,0,0)">
   <path
   d="M 285,-33 C 182,-33 111,30 74,156 52,228 41,333 41,471 c 0,78 14,145 41,201 34,71 87,106 158,106 53,0 88,-31 106,-94 l 23,-176 c 8,-64 28,-97 59,-98 l 735,706 c 11,11 33,17 66,17 42,0 63,-15 63,-46 V 965 c 0,-36 -10,-64 -30,-84 L 442,47 C 390,-6 338,-33 285,-33 Z"
   id="path1088" />
  </g>
  <g
   id="bullet-char-template-9679"
   transform="matrix(4.8828125e-4,0,0,-4.8828125e-4,0,0)">
   <path
   d="M 813,0 C 632,0 489,54 383,161 276,268 223,411 223,592 c 0,181 53,324 160,431 106,107 249,161 430,161 179,0 323,-54 432,-161 108,-107 162,-251 162,-431 0,-180 -54,-324 -162,-431 C 1136,54 992,0 813,0 Z"
   id="path1091" />
  </g>
  <g
   id="bullet-char-template-8226"
   transform="matrix(4.8828125e-4,0,0,-4.8828125e-4,0,0)">
   <path
   d="m 346,457 c -73,0 -137,26 -191,78 -54,51 -81,114 -81,188 0,73 27,136 81,188 54,52 118,78 191,78 73,0 134,-26 185,-79 51,-51 77,-114 77,-187 0,-75 -25,-137 -76,-188 -50,-52 -112,-78 -186,-78 z"
   id="path1094" />
  </g>
  <g
   id="bullet-char-template-8211"
   transform="matrix(4.8828125e-4,0,0,-4.8828125e-4,0,0)">
   <path
   d="M -4,459 H 1135 V 606 H -4 Z"
   id="path1097" />
  </g>
  <g
   id="bullet-char-template-61548"
   transform="matrix(4.8828125e-4,0,0,-4.8828125e-4,0,0)">
   <path
   d="m 173,740 c 0,163 58,303 173,419 116,115 255,173 419,173 163,0 302,-58 418,-173 116,-116 174,-256 174,-419 0,-163 -58,-303 -174,-418 C 1067,206 928,148 765,148 601,148 462,206 346,322 231,437 173,577 173,740 Z"
   id="path1100" />
  </g>
 </defs>
 <g
   id="g1108">
  <g
   id="id2"
   class="Master_Slide">
   <g
   id="bg-id2"
   class="Background" />
   <g
   id="bo-id2"
   class="BackgroundObjects" />
  </g>
 </g>
 
<path
   id="path1711"
   style="fill:#000000;fill-opacity:1;stroke:none;stroke-width:10.7281;stroke-linejoin:round;paint-order:markers stroke fill"
   d="m 185.20833,132.29167 h 582.08334 c 93.63538,92.77553 196.44908,199.24149 291.04163,291.04166 V 1137.7083 H 185.20833 c -0.003,-331.56283 -0.005,-673.85377 0,-1005.41663 z m 793.75,370.41666 H 687.91667 V 211.66667 c -130.64446,-0.26045 -292.6931,-0.93207 -423.33334,0 -3.58987,271.652 0.54756,574.98664 0,846.66663 h 714.375 c 0,-175.9078 0,-379.71714 0,-555.62497 z M 952.5,423.33333 c -59.25378,-66.90902 -110.01605,-115.04966 -185.20833,-193.04 -0.50262,46.71083 -3.5888,146.52087 0,193.11938 54.03214,1.87403 131.24414,3.20932 185.20833,-0.0794 z"
   sodipodi:nodetypes="ccccccccccccccccc" /><path
   style="fill:#000000;fill-opacity:1;stroke:none;stroke-width:10.9366;stroke-linejoin:round;paint-order:markers stroke fill"
   d="m 610.8433,1006.1909 -36.1507,-0.8489 -0.7601,-36.95865 -0.7602,-36.95884 -18.1704,-6.3455 c -9.9937,-3.49004 -25.1888,-10.36114 -33.7667,-15.26905 l -15.5963,-8.92339 -25.8364,25.64831 -25.8364,25.64827 -27.0067,-28.70876 -27.0067,-28.70893 25.4814,-25.97467 25.4813,-25.97468 -10.7125,-21.87342 c -5.8919,-12.03047 -11.4535,-26.48741 -12.3592,-32.12666 l -1.6468,-10.25316 h -36.149 -36.14911 l -1.76527,-26.65823 c -0.97101,-14.66204 -1.77163,-32.46782 -1.7793,-39.56844 l -0.0142,-12.91018 37.47558,-0.76068 37.4755,-0.76068 2.1629,-10.42773 c 1.1896,-5.73525 6.0215,-19.69633 10.7374,-31.02463 l 8.5744,-20.59691 -25.3013,-25.40734 c -13.9158,-13.97406 -24.8459,-26.5928 -24.2892,-28.04169 0.5566,-1.44886 11.7407,-14.09314 24.8534,-28.09835 l 23.8414,-25.46403 27.3497,25.2372 27.3497,25.2372 17.1624,-9.56794 c 9.4393,-5.26235 24.9412,-11.71959 34.4487,-14.34941 l 17.2862,-4.78147 -0.8813,-37.77908 -0.8813,-37.77909 33.2696,0.004 c 18.2982,0.002 35.2157,0.75062 37.5944,1.66344 3.0026,1.15226 4.3248,5.20342 4.3248,13.25086 0,6.37516 0.7966,22.81507 1.7703,36.5331 l 1.7703,24.94188 13.951,4.48789 c 7.673,2.4683 22.7197,9.14146 33.4372,14.82915 l 19.4863,10.34129 25.4966,-25.60333 c 29.5376,-29.66143 22.7937,-30.58192 57.965,7.9116 l 22.019,24.09886 -25.3055,25.41156 -25.3056,25.41155 7.4801,14.74275 c 4.114,8.10852 10.1797,22.74022 13.4794,32.51491 l 5.9992,17.77217 35.978,0.76279 35.978,0.76279 v 21.39298 c 0,11.76615 0.7866,28.91993 1.7484,38.11952 l 1.7483,16.72648 -37.6672,0.76306 -37.6674,0.76333 -3.8184,15.03796 c -2.1002,8.2709 -7.5235,22.98499 -12.0521,32.69795 l -8.2337,17.65998 26.7632,24.99874 26.7633,24.99878 -22.498,24.6439 c -12.3738,13.55413 -24.2027,26.05872 -26.2862,27.78792 -3.0289,2.5138 -9.1077,-1.8902 -30.323,-21.96859 l -26.5347,-25.11272 -18.2483,9.80289 c -10.0366,5.39171 -25.3229,11.83942 -33.9696,14.32844 l -15.7214,4.52548 v 38.0846 c 0,20.9466 -0.9228,37.81585 -2.0505,37.48755 -1.1279,-0.3283 -18.3184,-0.9789 -38.2013,-1.4459 z m 26.8798,-131.98843 c 60.0904,-11.39608 103.5987,-65.70361 103.5987,-129.31307 0,-77.24604 -59.2947,-138.57973 -133.9728,-138.57973 -101.4024,0 -160.5016,104.71801 -112.3583,199.08793 3.1608,6.19575 13.27,19.30736 22.4649,29.13692 31.6073,33.78875 75.2923,48.19743 120.2675,39.66795 z"
   id="path1713" /></svg>
